<?xml version="1.0" encoding="UTF-8"?>
<!DOCTYPE svg PUBLIC "-//W3C//DTD SVG 1.1//EN" "http://www.w3.org/Graphics/SVG/1.1/DTD/svg11.dtd">
<!-- Creator: CorelDRAW 2021 (64-Bit) -->
<svg xmlns="http://www.w3.org/2000/svg" xml:space="preserve" width="33.1628mm" height="14.5701mm" version="1.1" style="shape-rendering:geometricPrecision; text-rendering:geometricPrecision; image-rendering:optimizeQuality; fill-rule:evenodd; clip-rule:evenodd"
viewBox="0 0 773.97 340.04"
 xmlns:xlink="http://www.w3.org/1999/xlink"
 xmlns:xodm="http://www.corel.com/coreldraw/odm/2003">
 <defs>
  <style type="text/css">
   <![CDATA[
    .fil0 {fill:#FEFEFE}
    .fil1 {fill:#FEFEFE;fill-rule:nonzero}
   ]]>
  </style>
 </defs>
 <g id="Layer_x0020_1">
  <metadata id="CorelCorpID_0Corel-Layer"/>
  <g id="_3019306514688">
   <path class="fil0" d="M372.81 28.09c4.33,1.75 5.42,14.65 0,16.28 -3.97,-2.88 -3.64,-13.45 0,-16.28z"/>
   <path class="fil0" d="M399.74 28.09c2.33,1.21 3.2,3.89 4.25,6.37 -0.68,3.09 -2.9,4.65 -2.12,9.2l-4.26 0c-0.19,-6.85 -1.36,-11.61 2.13,-15.56z"/>
   <path class="fil0" d="M350.13 37.29c-3.35,3.87 0.95,11.38 -4.96,12.02 -0.65,-4.32 -1.12,-8.8 -4.25,-10.61 1.65,-5.85 6.29,-6.59 9.21,-1.41z"/>
   <path class="fil0" d="M431.63 38c-1.69,3.49 -2.36,8.03 -4.24,11.32 -8.01,-4.15 -0.3,-24.46 4.24,-11.32z"/>
   <path class="fil0" d="M248.07 46.49c-4.48,2.84 -3.61,-3.31 -7.8,-2.84 -0.94,8.83 -5.92,19.59 2.13,24.06 -0.7,7.25 5.03,13.42 2.83,17.69 -9.99,-2.48 -3.09,-17.57 -12.05,-21.23 0.77,-9.37 0.96,-19.32 4.96,-25.47 5.97,-0.06 9.06,2.74 9.93,7.78z"/>
   <path class="fil0" d="M528.74 86.11c-2.24,-4.32 3.44,-9.9 2.83,-16.98 2.04,-1.98 4.05,-3.97 5.68,-6.37 -0.35,-6.49 -1.18,-12.51 -2.85,-17.69 -2.39,0.2 -4.35,0.84 -4.25,3.54 -0.91,-0.98 -3.35,-0.43 -4.26,-1.42 0.68,-6.06 10.15,-11.04 13.47,-4.24 -2.23,7.07 2.65,11.18 2.84,16.28 0.3,8.38 -8.56,14.11 -7.81,24.76 -3.44,-0.91 -3.31,4.11 -5.66,2.12z"/>
   <path class="fil0" d="M304.07 69.13c-4.51,-1.16 -2.24,-9.09 -7.8,-9.19 -0.12,1.02 -0.34,3.76 -2.13,4.95 -3.04,0.44 -4.57,-0.63 -5.67,-2.12 -0.16,-5.11 3.6,-6.31 7.09,-7.78 -0.29,-1.84 -2.11,-2.14 -2.13,-4.25 8.24,-2.16 13.97,13.51 10.64,18.4z"/>
   <path class="fil0" d="M479.84 50.73c-0.08,1.81 -0.41,3.37 -1.43,4.25 2.11,3.36 7.49,2.56 7.09,7.07 -0.41,4.54 -7.6,5.08 -7.8,-2.12 -3.83,1.37 -3.2,7.18 -5.68,9.9 -1.47,-0.42 -2.29,-1.49 -3.55,-2.13 2.93,-6.51 2.93,-15.95 11.35,-16.98z"/>
   <path class="fil0" d="M165.15 84.69c8.88,7.65 17.03,16.02 29.06,20.52 -0.18,2.19 -0.71,4 -1.42,5.66 -5.63,-2.83 -19.7,-10.81 -25.52,-16.27 -2.81,-2.63 -6.27,-6.8 -2.12,-9.9z"/>
   <path class="fil0" d="M608.12 86.11c1.47,1.36 2.95,2.71 3.54,4.95 -8.01,9.21 -18.46,16.01 -31.18,20.52 0.55,-2.66 -0.87,-3.39 -0.71,-5.66 11.54,-4.52 20.96,-11.15 28.35,-19.81z"/>
   <path class="fil0" d="M154.52 88.94c13.2,13 27.95,24.46 47.48,31.13 -0.23,1.65 -0.85,2.92 -1.42,4.24 -19.34,-4.04 -34.96,-17.92 -48.91,-29.71 0.81,-2.03 1.49,-4.17 2.84,-5.66z"/>
   <path class="fil0" d="M619.46 90.36c9.77,6.56 -6.19,14.09 -13.47,19.1 -10.48,7.24 -19.74,13.49 -32.6,16.27 -0.31,-1.81 -0.99,-3.26 -2.13,-4.25 18.66,-7.79 35.79,-17.11 48.21,-31.13z"/>
   <path class="fil0" d="M355.09 96.73c8.33,-0.53 8.76,6.82 14.89,8.49 -0.28,3.5 -6.11,1.25 -8.51,0.7 -3.41,1.07 -3.62,5.34 -9.2,4.24 7.69,-7.08 -5.18,-2.83 -5.67,-9.2 6.14,-0.82 9.33,1.38 13.47,0.71 -1.51,-1.79 -4.81,-1.8 -4.97,-4.95z"/>
   <path class="fil0" d="M419.58 96.73c0.21,3.03 -3.33,2.33 -3.54,4.95 1.75,0.53 6.98,-1.5 11.34,-0.71 -0.09,1.28 0.87,1.5 0.7,2.83 -2.13,1.18 -6.08,0.53 -8.51,1.42 -2.25,2.09 3.68,2.86 1.42,4.95 -4.14,1.51 -5.62,-2.5 -8.5,-4.24 -1.87,0.68 -6.07,1.37 -7.8,0 5.06,-2.98 7.48,-8.57 14.88,-9.19z"/>
   <path class="fil0" d="M158.06 105.92c8.98,5.9 16.7,13.04 27.64,16.98 -0.68,1.45 -1.45,2.8 -2.13,4.25 -11.24,-3.63 -19.04,-10.71 -27.64,-16.98 0.28,-1.84 2.11,-2.13 2.13,-4.25z"/>
   <path class="fil0" d="M615.92 106.63c1.48,1.36 2.95,2.71 3.55,4.95 -9,5.87 -17.88,11.86 -27.64,16.98 -0.9,-1.23 -2.39,-1.86 -2.12,-4.25 7.94,-6.68 18.48,-10.78 26.22,-17.69z"/>
   <path class="fil0" d="M158.06 117.95c7.76,2.85 12.25,9 20.55,11.32 0.35,2.23 -2.17,1.6 -1.42,4.24 -7.63,-3.23 -14.51,-7.21 -20.55,-12.02 0.3,-1.35 1.53,-1.78 1.42,-3.54z"/>
   <path class="fil0" d="M413.92 148.37l0 0 7.08 0 0 -6.37 -7.08 0 0 6.37zm12.06 0l0 0c3.78,-0.46 9.42,0.93 12.04,-0.71 -4.44,-3.81 -7.73,-8.79 -12.04,-12.73l0 13.44zm-28.36 0l0 0 11.34 0c-0.47,-4.49 0.93,-10.84 -0.71,-14.15 -2.83,5.43 -7.86,8.66 -10.63,14.15zm16.31 -10.61l0 0 7.08 0 0 -7.79 -7.08 0 0 7.79zm-4.96 -19.1c3.22,0.83 2.9,-0.02 6.38,1.41 1.89,2.09 -2.63,2.09 -1.41,5.66 0.75,1.61 4.45,0.27 6.38,0.71 1.61,-0.76 0.27,-4.45 0.7,-6.37 2.21,0.4 4.62,0.59 6.39,1.42 3.51,0.77 -2.84,2.42 -2.13,4.95 5.1,7.39 11.14,13.87 17.72,19.8 -1.62,4.77 -4.44,8.31 -5.67,13.45l-36.86 0c-1.46,-5.15 -4.99,-8.23 -6.38,-13.45 4.27,-9.88 16.03,-12.29 14.88,-27.59z"/>
   <path class="fil0" d="M615.92 118.66c1.12,1.47 2.32,2.88 2.84,4.95 -6.4,3.99 -13.03,7.74 -20.56,10.61 -0.63,-1.49 -2.15,-2.1 -2.13,-4.25 6.98,-3.41 13.86,-6.91 19.85,-11.31z"/>
   <path class="fil0" d="M352.26 147.66l0 0 7.08 0 0 -5.66 -7.08 0c-0.46,2.98 -0.71,3.26 0,5.66zm12.05 0l0 0 10.63 0c-3.2,-4.12 -6.78,-7.85 -10.63,-11.31l0 11.31zm-28.35 0l0 0 10.63 0c-0.46,-4.25 0.93,-10.36 -0.71,-13.44 -2.64,5.14 -7.69,7.88 -9.92,13.44zm15.59 -16.98l0 0 0 6.37 7.8 0 0 -6.37c-2.88,-0.76 -3.89,0.28 -7.8,0zm-4.96 -11.31c2.71,-0.11 5.16,0.04 6.38,1.41 3.62,0.73 -2.77,1.97 -1.42,4.95 0.98,1.61 4.94,0.26 7.09,0.71 1.86,-0.98 -0.34,-6.01 1.42,-7.08 2.83,0 4.25,1.41 7.09,1.41 -1.07,1.53 -3.55,1.65 -3.55,4.25 3.5,9.24 11.24,14.26 17.01,21.22 -0.98,5.39 -5.07,7.67 -6.38,12.74l-35.43 0c-1.09,-5.46 -6.56,-7.88 -6.39,-12.74 0.33,-8.89 17.43,-12.88 14.18,-26.88z"/>
   <path class="fil0" d="M88.6 146.24l0 0c0.17,-2.66 2.67,-2.99 2.84,-5.66 -1.57,-1.74 -2.35,-4.26 -4.96,-4.95 -2.11,3.87 -3.08,9.37 2.12,10.61zm-2.12 -16.97c4.82,2.03 6.43,7.25 9.21,11.32 -2.33,4.75 -5.49,8.67 -7.09,14.15 -3.76,-3.09 -4.89,-8.8 -8.5,-12.03 0.93,-5.67 4.13,-9.08 6.38,-13.44z"/>
   <path class="fil0" d="M687.5 148.37l0 0c-0.71,-3.53 3.61,-2.05 3.55,-4.95 -2.3,-1.48 -1.79,-5.77 -4.96,-6.38 -3.9,3.55 -2.65,8.71 1.41,11.32zm-0.71 -17.69c4.01,3.08 6.31,7.86 8.51,12.75 -1.84,5.24 -7.15,7 -7.8,13.44 -3.97,-3.34 -4.84,-9.8 -8.51,-13.44 1.12,-5.73 5.18,-8.51 7.8,-12.75z"/>
   <path class="fil0" d="M94.98 169.6l0 0c6.92,-6.54 14.22,-16.46 12.05,-29.72 -6.97,6.49 -14.47,16.21 -12.05,29.72zm14.89 -36.09c5.62,17.67 -4.4,37.4 -18.43,42.45 -4.54,-19.84 4.76,-36.24 18.43,-42.45z"/>
   <path class="fil0" d="M680.42 170.31l0 0c-0.96,-12.72 -5.25,-22.12 -13.47,-27.59 1.15,12.53 4.78,22.59 13.47,27.59zm-17.72 -35.38c15.03,5.56 24.31,20.5 20.55,42.46 -14.74,-5.96 -22.97,-21.71 -20.55,-42.46z"/>
   <path class="fil0" d="M82.93 164.65l0 0c-1.86,-10.17 -9.2,-18.64 -17.01,-20.52 2.95,9.55 7.4,17.62 17.01,20.52zm-21.97 -26.18c16.97,2.88 25.27,14.4 26.22,33.25 -14.42,-5.41 -25.67,-14 -26.22,-33.25z"/>
   <path class="fil0" d="M691.05 168.89l0 0c9.37,-5.49 17.98,-11.76 19.13,-25.46 -11.09,4.61 -16.59,14 -19.13,25.46zm21.96 -30.42c3.24,21.17 -11.59,29.74 -24.8,36.79 -3.95,-18.93 8.87,-33.03 24.8,-36.79z"/>
   <path class="fil0" d="M188.53 142c4.32,-0.41 5.58,2.42 10.63,2.84 0.52,2.16 -1.23,2.08 -0.71,4.24 -4.12,-0.6 -6.92,-2.52 -10.63,-3.54 -0.59,-2 1,-1.84 0.7,-3.54z"/>
   <path class="fil0" d="M583.31 142c1.92,0.44 2.78,1.95 2.84,4.25 -2.98,1.51 -6.53,2.45 -9.93,3.54 0.19,-2.07 -1.6,-2.17 -1.41,-4.24 3.65,-0.37 6.03,-2 8.51,-3.54z"/>
   <path class="fil0" d="M184.28 146.95c4.79,0.88 8.06,3.3 12.76,4.25 -0.54,0.63 -0.76,1.6 -0.7,2.83 -5.02,2.24 -8.68,-2.52 -13.47,-2.83 -0.75,-2.65 1.76,-2.02 1.42,-4.25z"/>
   <path class="fil0" d="M591.82 151.2c-3.69,1.98 -7.44,3.89 -12.05,4.95 0.34,-2.23 -2.18,-1.6 -1.41,-4.24 5.25,0.3 10.8,-6.92 13.46,-0.71z"/>
   <path class="fil0" d="M62.37 163.93l0 0c-1.91,-1.4 -3.39,-3.22 -4.25,-5.65 -2.61,0.45 -7.06,-0.92 -8.5,0.7 3.94,4.1 5.84,8.33 12.75,4.95zm-1.42 -9.9c3.49,5.24 6.4,11.07 12.05,14.15 -5.33,1.52 -13.51,0.2 -19.13,1.42 -4.33,-3.48 -7.29,-8.31 -10.64,-12.74 2.62,-4.22 11.25,-2.45 17.72,-2.83z"/>
   <path class="fil0" d="M713.01 166.77l0 0c7.26,1.35 9.27,-2.54 11.34,-6.37 -7.15,-1.25 -9.41,2.39 -11.34,6.37zm17.72 -9.2c-1.82,6.67 -6.83,10.16 -10.63,14.86 -6.37,-0.55 -12.33,-3.94 -18.44,-0.71 3.81,-5.63 9.83,-9.05 12.76,-15.56 5.81,-1.6 11.48,0.02 16.3,1.41z"/>
   <path class="fil0" d="M382.73 192.24l0 0 8.51 0 0 -6.37 -8.51 0 0 6.37zm12.76 0l0 0c3.79,-0.46 9.44,0.93 12.05,-0.71 -3.96,-4.3 -8.05,-8.48 -12.05,-12.73l0 13.44zm-28.35 0l0 0 11.34 0c-0.46,-4.25 0.93,-10.37 -0.7,-13.44 -3.92,4.1 -7.72,8.34 -10.64,13.44zm15.59 -10.61l0 0 8.51 0 0 -7.78 -8.51 0 0 7.78zm-4.25 -18.4c1.69,0.44 5.14,-0.88 5.68,0.71 3.57,0.55 -2.24,1.96 -1.43,4.25 1.22,1.62 5.41,0.26 7.8,0.71 1.59,-0.53 0.28,-3.97 0.71,-5.67 3.15,-0.54 4.25,0.95 7.09,0.71 -7.99,11.23 9.79,17.55 13.46,26.18 -0.84,5.52 -4.19,8.55 -5.67,13.45l-36.15 0c-2.19,-4.42 -4.47,-8.74 -7.09,-12.74 3.83,-10.57 16.29,-12.51 15.6,-27.6z"/>
   <path class="fil0" d="M48.19 182.33l0 0c10.63,6.06 27.48,0.98 34.73,-4.95 -11.42,-2.65 -28.59,-2.04 -34.73,4.95zm42.53 -5.65c-8.83,10.32 -35.22,17.61 -48.9,6.37 7.15,-14.23 35.36,-15.69 48.9,-6.37z"/>
   <path class="fil0" d="M692.47 179.5l0 0c5.16,7.35 26.39,11.47 34.02,3.54 -9.45,-5.4 -21.41,-5.93 -34.02,-3.54zm41.1 3.54c-9.88,14.69 -41.64,8.04 -48.9,-4.25 13.4,-8.98 39.17,-5.94 48.9,4.25z"/>
   <path class="fil0" d="M97.1 183.04l0 0c0.39,2.74 3.84,9.07 -1.42,9.2 0.38,-3.21 -1.43,-4.24 -2.13,-6.37 -3.82,-0.51 -4.83,1.79 -6.38,3.54 5,2.8 7.4,8.18 9.93,13.44 2.13,-6.88 7.14,-14.5 4.95,-23.35 -2.7,0.13 -4.66,1.01 -4.95,3.54zm8.5 -5.65c2.27,14.89 -4.91,26.12 -10.63,35.37 -0.64,-11.15 -5.47,-18.14 -13.47,-21.93 2.21,-4.16 4.54,-8.21 9.93,-9.2 3.01,-3.65 9.04,-8.85 14.17,-4.24z"/>
   <path class="fil0" d="M678.29 203.56l0 0c1.06,-6.26 5.9,-8.74 9.21,-12.74 -1.85,-1.69 -4.42,-4.01 -7.09,-2.83 -0.75,2.07 -0.98,4.68 -2.13,6.37 -0.95,-0.72 -2.64,-0.68 -2.84,-2.13 -0.32,-3.61 1.7,-4.92 2.14,-7.79 -1,-1.83 -2.29,-3.37 -5.67,-2.82 0.97,8.46 2.03,16.84 6.37,21.93l0.01 0zm15.59 -9.91c-9.17,2.41 -13.57,9.57 -13.47,21.23 -5.12,-3.96 -19.87,-34.26 -8.51,-38.21 2.64,-0.92 8.39,2.41 9.93,6.37 6.37,1.18 10.02,5.09 12.05,10.61z"/>
   <path class="fil0" d="M4.96 201.43l0 0c1.66,8.02 10.85,22.31 22.68,21.93 9.29,-0.3 15.9,-13.05 7.09,-18.39 -5.27,3.04 -11.55,13.78 -18.43,8.48 4.49,-2.35 9.85,-3.84 11.34,-9.2 -6.43,-0.89 -12.27,2.22 -16.3,1.42 0.06,-1.23 -0.16,-2.2 -0.71,-2.83 4.76,-3.51 15.58,-0.97 21.97,-2.83 -3.14,-2.28 -6.74,-4.11 -9.21,-7.07 8.58,-2.36 11.95,6.42 17.72,9.2 2.48,-21.42 -32.99,-13.4 -36.15,-0.71zm-4.96 -0.71c4.23,-7.19 17.72,-19.31 32.6,-16.27 8.97,1.84 18.91,13.06 9.93,21.94 3.37,9.28 -1.76,18.94 -9.93,20.51 -16.47,3.18 -29.81,-14.56 -32.6,-26.18z"/>
   <path class="fil0" d="M733.57 194.36l0 0c-0.12,2.25 -1.66,5.2 0,7.07 6.36,-1.4 10.82,-10.76 18.43,-6.37 -3.45,1.96 -7.48,3.37 -9.92,6.37 8.66,0.32 17.83,0.12 21.97,4.95 -1.34,0.07 -0.49,2.33 -2.13,2.12 -3.91,-1.53 -10.77,-3.86 -15.59,-2.12 3.93,3.16 6.65,7.51 12.06,9.2 -1.45,0.67 -2.81,1.44 -4.26,2.12 -5.86,-3.12 -9.69,-8.25 -14.89,-12.03 -10.37,5.44 -2.11,17 6.39,17.68 12.38,1 20.95,-10.23 24.09,-16.98 -4.31,-12.47 -23.08,-22.84 -36.15,-12.03zm40.4 14.15c-5.06,14.14 -27.75,27.9 -40.4,14.85 -1.52,-1.57 -3.2,-5.21 -3.54,-7.78 -0.4,-2.97 1.74,-5.74 1.41,-9.2 -0.31,-3.4 -3.65,-6.2 -2.84,-10.61 0.99,-5.33 8.71,-9.83 14.89,-10.61 16.57,-2.1 28.44,10.75 30.48,23.35z"/>
   <path class="fil0" d="M70.17 233.98l0 0c13.09,-0.97 25.29,-29.9 10.63,-33.97 -8.96,-2.49 -10.62,4.71 -11.33,12.03 3.24,4.77 8.67,7.38 11.33,12.73 -1.25,0.64 -1.16,2.61 -2.83,2.84 -2.31,-3.6 -5.54,-6.26 -8.5,-9.2 -2.35,4.6 1.54,9.45 0,12.02l-3.55 0c-1.17,-4.25 -0.58,-10.27 -0.71,-15.56 -4.03,-0.28 -4.01,6.55 -8.5,3.54 2.61,-6.6 9.26,-9.16 9.92,-17.69 -20.4,-0.39 -17.06,34.78 3.55,33.26zm5.67 -38.21c5.78,-3.21 13.6,4.28 14.88,7.78 5.77,15.7 -8,34.59 -20.56,35.37 -26.69,1.67 -30.48,-50.86 2.13,-41.04 1.25,-0.64 2.07,-1.71 3.55,-2.12z"/>
   <path class="fil0" d="M703.8 204.27l0 0c-6.3,-6.14 -12.63,-1.6 -14.17,1.41 -6.32,12.4 4.9,31.02 18.43,30.42 17.52,-0.77 18.21,-35.92 0.71,-33.25 -0.46,8.39 10.74,12.2 7.8,18.39 -3.48,-0.77 -3.4,-5.09 -6.38,-6.36 -0.8,6.04 1.37,15.04 -3.54,16.98 -1.64,-2.15 -0.25,-7.3 -0.71,-10.62 -4.44,1.46 -5.59,6.22 -9.21,8.5 0.62,-2.28 -2.34,-0.98 -2.12,-2.84 5.03,-6.46 15.03,-11.28 9.2,-22.64zm0.71 -4.25c24.23,-15.89 31.8,48.75 -3.55,39.63 -11.69,-0.31 -25.81,-32.39 -11.34,-41.75 4.17,-2.7 12.36,-1.93 14.89,2.12z"/>
   <path class="fil0" d="M429.51 252.38l0 0c3.18,1.07 5.09,3.4 8.51,4.24 0.36,-2.68 5.16,-7.76 2.12,-9.2 -3.65,1.54 -7.09,3.3 -10.63,4.95zm-92.85 4.24l0 0c2.44,-2.87 4.33,-1.89 6.38,-4.95 -0.56,-0.15 -0.83,-0.59 -0.71,-1.41 -4.11,0.54 -7.09,-3.75 -9.93,-2.13 1.42,2.83 2.15,6.34 4.26,8.49zm50.32 -29.72l0 0c-4.96,-1.88 -9.38,-4.3 -14.18,-6.36 -9.1,11.89 -12.89,29.11 -26.22,36.79 24.25,-5.54 57.45,-2.01 80.09,-0.71 -14.19,-6.59 -15.41,-26.12 -26.22,-36.08 -4.13,2.48 -8.08,5.14 -13.47,6.36zm183.57 -4.95l0 0c-49.33,-6.72 -120.75,-28.41 -163.02,-2.83 5.82,9.29 9.71,20.5 17.01,28.3 35.67,-16.75 95.38,-5.24 124.03,2.83 12.87,3.62 31.21,6.86 46.78,7.79 32.45,1.91 69.21,2.79 90.73,-13.44 -6.36,-9.17 -10.7,-16.53 -16.3,-26.89 -32.32,10.59 -66.23,8.73 -99.23,4.24zm-464.95 -6.37l0 0c-7.54,7.55 -11.89,18.32 -18.43,26.88 24.06,11.02 44.36,17.79 80.8,14.86 24.13,-1.95 48.54,-6.35 63.07,-9.2 36.34,-7.1 79.26,-16.53 119.79,-0.7 5.28,-10.29 12.51,-18.63 17.01,-29.71 -78.71,-34.69 -178.31,29.5 -262.25,-2.12zm523.79 -28.3l0 0c5.42,5.47 13.72,13.56 7.79,24.06 9.15,-1.25 18.64,-2.15 25.52,-5.66 -8.02,-14.4 -4.21,-40.61 -19.85,-47.4 -4.1,10.06 -9.16,19.17 -13.46,29.01zm-389.83 -29.01l0 0c-4.85,0.81 -7.91,3.42 -13.46,3.53 -2.01,5.83 -1.23,9.84 -2.13,14.86 -2.04,11.36 -10.76,15.27 -9.93,26.18 6.18,2 15.9,1.28 23.39,0 6.26,-1.07 14.06,-1.94 16.3,-6.37 -6.67,-6.66 -0.42,-15.31 2.13,-22.64 -5.34,-5.29 -11.13,-10.13 -16.31,-15.57zm-109.15 -0.71l0 0c-14.39,7.33 -11.11,32.3 -18.43,46.7 6.88,2.92 17.38,5.61 25.52,4.95 -5.4,-9.75 1.2,-18.65 8.5,-21.93 -5.27,-9.84 -9.92,-20.29 -15.59,-29.72zm388.41 18.4l0 0c1.64,5.44 5.06,9.1 5.67,15.56 -0.69,2.86 -4.65,2.43 -3.54,7.08 9.94,4.25 27.84,7.23 38.97,5.66 2.78,-7.23 -4.01,-11.98 -6.37,-17.68 -3.01,-7.28 -2.62,-15.18 -4.96,-24.06 -3.67,-1.98 -7.78,-3.56 -11.33,-5.66 -5.3,7.22 -14.18,10.86 -18.43,19.1zm-45.36 -54.47l0 0c-3.03,3.59 -8.02,5.2 -12.77,7.08 2.46,22.62 5.06,48.63 32.61,43.87 2.63,-3.12 7.72,-6.01 7.8,-12.03 0.07,-5.42 -4.08,-11.13 -10.63,-9.2 -5.29,1.56 -2.44,9.35 -8.51,11.32 -11.5,-5.09 -5.84,-29.26 -8.5,-41.04zm-183.57 39.62l0 0c1.18,-15.79 -19.99,-12.55 -16.3,2.83 1.12,4.62 5.62,4.81 7.09,8.49 28.05,4.57 30.22,-22.6 34.03,-44.57 -5.99,-0.86 -8.89,-4.81 -14.18,-6.37 -0.43,14.21 4.8,36.98 -10.63,39.62zm89.3 -39.62l0 0c-1.61,-0.52 0.65,-4.9 -2.13,-4.25 -16.54,-1.64 -36.13,-0.24 -53.86,-0.7 1.3,3.88 5.88,4.5 8.51,7.07 -1.54,2.01 -2.01,5.07 -3.55,7.07 -3.85,0.55 -5.74,-0.87 -9.21,-0.7 0.49,4.5 -1.2,6.82 -0.7,11.31 18.53,32.18 36.43,64.74 70.17,79.95 32.61,-16.73 49.09,-49.56 68.75,-79.24 -0.55,-3.69 -1.17,-7.32 -1.42,-11.32 -4.06,-0.5 -6.33,0.76 -9.93,0.71 -0.91,-2.63 -1.69,-5.37 -2.83,-7.78 2.88,-2.07 6.48,-3.43 8.5,-6.37 -16.39,-1.57 -35.61,-0.3 -53.16,-0.7 -1.89,0.71 -1.4,3.78 -2.84,4.95 -4.11,-1.55 -5.72,-5.61 -8.51,-8.5 -1.81,3.62 -3.96,6.9 -7.8,8.5zm-97.81 -3.54l0 0c-1.49,-0.32 -4.64,-5.18 -4.95,-2.12 1.85,7.36 1.89,22.63 6.37,29.72 5.93,0.46 7.81,4.94 11.34,7.78 2.6,-15.59 3.97,-40.23 -9.21,-44.57 -0.23,4.01 -2,6.49 -3.55,9.2zm115.53 -4.96l0 0c2.61,-0.45 7.06,0.92 8.51,-0.7 -3.98,-0.06 -6.88,-4.91 -9.92,-3.54 1.24,0.65 1.57,2.21 1.42,4.24zm-27.64 0l0 0 9.22 0c-0.94,-2.19 2.1,-3.92 0,-4.95 -2.95,1.78 -6.46,2.98 -9.22,4.95zm12.76 2.83l0 0c2.8,-2.39 3.9,-6.48 5.67,-9.9 1.79,3.88 2.69,8.63 6.38,10.62 -0.74,-7.53 -2.48,-14.04 -7.8,-16.98 -1.87,4.5 -6.73,9.78 -4.26,16.27zm99.24 -20.51l0 0c-7.91,13.34 -18.77,23.72 -32.62,31.13 17.42,-2.67 26.54,-13.6 38.28,-21.93 0.24,-3.79 -0.31,-6.76 -1.42,-9.2l-4.25 0zm-178.61 20.51l0 0c6.5,4.27 14.43,9.26 22.68,10.61 -9.33,-6.71 -17.23,-12.74 -24.81,-21.23 -3.97,-4.45 -5.78,-11.38 -12.05,-9.9 -4.43,10.23 7.92,16.41 14.18,20.51zm132.53 -13.45l0 0c-0.12,-14.72 -34.58,-8.67 -35.43,2.84 5.55,8.95 35.56,10.26 35.43,-2.84zm-95.68 -0.7l0 0c-3.35,13.18 29.11,12.89 34.73,3.54 -3.74,-10.79 -31.5,-16.22 -34.73,-3.54zm49.61 -4.95l0 0c2.48,2.7 4.11,6.27 6.38,9.2 4.68,-5.07 -2.27,-9.54 -4.25,-14.15 0.74,3.09 -2.41,2.32 -2.13,4.95zm-12.76 4.95l0 0c1.02,1.58 1.46,3.73 3.55,4.25 1.06,-3.89 3.09,-6.82 5.66,-9.2 -1.13,-1.46 -0.65,-4.54 -2.83,-4.95 -1.23,4.19 -4,6.85 -6.38,9.9zm22.68 -4.95l0 0c4.27,-2.88 10.32,-11.32 7.09,-16.98 -3.91,4.11 -8.26,7.8 -7.09,16.98zm-23.38 0.71l0 0c0.58,-9.55 -3.35,-14.59 -9.21,-17.69 0.42,8.53 2.87,15.05 9.21,17.69zm19.13 -5.66l0 0c1.26,-4.55 7.36,-12.64 2.13,-16.98 -2.48,3.37 -5.58,12.24 -2.13,16.98zm-14.18 -0.71l0 0c1.58,-6.17 1.68,-15.38 -4.25,-17.69 -1.87,7.16 0.51,14.02 4.25,17.69zm7.09 0.71l0 0c2.79,-4.07 3.6,-16.78 -0.71,-19.82 -2.86,5.33 -2.63,15.13 0.71,19.82zm19.13 0l0 0c-0.02,0.75 0.34,1.79 0.71,0.71 5.08,-4.11 18.76,-3.54 24.81,-0.71 2.26,3.35 6.35,5.79 6.38,10.6 0.02,4.33 -4.91,7.11 -3.55,9.2l18.43 0c0.89,-17.5 -0.61,-31.64 2.13,-48.82 -45.36,0.47 -92.61,-0.95 -136.79,0.71 3.59,15.46 -0.3,37.18 1.42,48.11l19.84 0c-14.08,-13.86 12.42,-28.28 26.23,-18.4 -1.41,-4.5 -4.35,-11.21 -2.13,-16.98 3.43,0.34 5.15,2.41 8.5,2.82 0.32,-4.16 0.65,-8.31 3.55,-9.9 3.65,0.61 3.95,4.54 7.08,5.66 0.29,-3.5 1.62,-5.93 4.26,-7.08 2.38,2.1 3.22,5.75 4.95,8.5 4.01,-9.12 8.17,-7.67 9.22,2.82 2.99,-0.78 4.5,-3.05 7.79,-3.54 1.6,5.48 0.57,13.52 -2.84,16.28zm-48.19 -34.67l0 0c19.37,-0.47 40.63,0.95 58.83,-0.71 -16.11,-4.5 -43.88,-5.68 -58.83,0.71zm142.47 -26.89l0 0c-13.05,-2.38 -18.59,5.46 -24.09,10.61 -2.68,2.51 -6.38,3.83 -7.8,5.67 -1.99,2.58 -2.29,7.2 -4.25,11.32 -2.49,5.23 -5.15,8.86 -5.67,14.14 -1.18,11.93 1.37,25.61 -0.71,39.62 8.69,-4.39 15.2,-12.48 15.59,-21.23 10.28,1.06 17.16,-1.26 23.4,-4.25 0.47,1.65 2.35,1.9 2.83,3.55 -4.25,0.47 -5.46,3.98 -9.21,4.95 -0.13,6.04 2.34,9.46 2.84,14.86 5.6,-1.09 5.97,-14.37 12.05,-8.49 -5.59,4.63 -2.3,11.06 -2.83,17.69 -0.2,2.36 -2.28,4.53 -2.84,7.08 -1.74,7.82 -0.64,14.33 -3.54,19.81 18.07,9.68 3.69,40.21 -17.02,31.84 -4.33,6.51 -11.59,10.12 -17.01,15.56 11.87,1.82 28.26,1.5 41.82,3.54 -0.11,-25.46 22.07,-30.92 32.62,-45.98 3.82,-5.48 3.79,-11.77 8.5,-17.69 6.36,5.06 -3.55,15.49 -5.67,21.22 12.1,8.67 36.99,10.56 56.7,7.08 3.23,-10.22 -3.75,-15.95 -7.8,-21.23 8.29,-5.45 14.19,10.08 14.18,16.27 -0.01,8.11 -6.61,14.61 -10.63,24.06 -1.92,4.51 -1.93,9.75 -3.55,13.45 -2.51,5.74 -10.39,7.76 -8.5,14.85 11.9,2.7 34.39,4.83 42.52,0.71 -4.07,-12.55 -0.73,-19.7 4.25,-29.72 6.82,-13.7 13.1,-28.67 18.44,-42.45 3.2,2.47 3.43,7.9 7.8,9.2 -1.65,-16.9 6.41,-27.34 4.25,-40.32 -0.47,-2.87 -2.78,-5.33 -3.54,-8.49 -0.71,-2.96 0.07,-6.41 -0.7,-9.2 -2.71,-9.69 -13.25,-14.12 -21.97,-21.23 -3.9,-3.17 -7.04,-9 -12.05,-12.03 -17.97,-10.85 -44.31,-9.41 -68.05,-12.03 2.68,24.57 -10.13,48.56 -21.97,56.61 -3.5,2.39 -8.81,5.05 -13.45,4.24 -3.98,-0.7 -11.95,-8.34 -4.97,-12.03 2.54,2.33 2.21,5.23 4.97,6.36 6.02,2.47 11.2,-4.47 14.17,-7.78 1.71,-1.9 4.85,-2.93 6.38,-4.95 6.17,-8.15 11.23,-24.47 11.34,-33.96 0.28,-24.86 -25.67,-21.9 -31.89,-6.37 0.61,-2.28 -1.85,-1.47 -2.14,-2.84 -0.15,-3.92 3.81,-3.74 3.56,-7.78 -6.13,-0.73 -13.27,-0.44 -16.31,-4.25zm-186.4 36.08l0 0c-0.73,-3.8 -6.6,-16.38 -8.51,-19.1 -2.39,-3.39 -6,-4.36 -9.21,-7.07 -2.34,-1.97 -3.77,-5.51 -4.96,-6.37 -12.46,-8.99 -20.8,0.36 -34.73,0 -1.7,3.01 6.61,7.93 0,9.9 -4.13,-12.97 -26.84,-16.51 -30.47,-0.71 0.31,3.8 -0.4,7.67 0,11.32 2.23,19.87 15.25,42.38 34.03,42.45 2.37,-0.69 -0.36,-6.49 3.54,-5.66 4.46,8.52 -3.48,13.05 -10.63,11.31 -16.39,-3.97 -34.59,-35.83 -30.48,-60.14 -31.55,1.75 -57.15,0.48 -73.71,15.58 -2.53,2.3 -3.68,4.99 -6.38,7.07 -6.09,4.68 -14.68,8.26 -19.14,14.86 -2.62,3.87 -2.46,8.26 -3.54,14.15 -0.9,4.9 -3.2,9.64 -3.55,13.44 -1.4,15.11 6.5,22.33 4.25,38.2 3.97,-1.7 3.42,-7.91 7.8,-9.2 4.9,7.86 4.88,17.6 9.93,26.88 0.91,1.69 3.39,2.92 4.25,4.96 3.57,8.48 11.41,21.79 11.34,27.59 -0.05,4.27 -3.6,7.55 -2.84,12.02 11.97,2.75 34.71,3.82 43.94,-2.12 -0.21,-4.94 -6.57,-7.1 -9.21,-12.03 -1.98,-3.71 -3.5,-10.9 -6.38,-16.98 -4.32,-9.19 -9.29,-14.76 -8.5,-24.06 0.42,-5.01 6.9,-20.26 13.47,-13.45 -4.14,5.34 -11.61,12.36 -7.8,21.23 20.81,1.58 44.76,1.03 58.82,-6.37 -4.39,-5.75 -7.96,-12.33 -9.91,-20.52 1.76,0.11 2.19,-1.11 3.54,-1.41 7.18,27.51 36.28,35.27 41.82,62.26 10.49,1.66 28.23,-1.48 41.1,-2.13 -5.86,-1.65 -9.91,-13.3 -17.71,-14.85 -1.94,-0.39 -5.02,1.42 -7.09,1.41 -18.02,-0.05 -26.68,-23.45 -9.92,-32.55 -3.41,-5.21 -1.71,-12.44 -2.84,-19.1 -0.61,-3.62 -3.32,-6.42 -3.54,-9.91 -0.19,-3.04 1.85,-5.87 1.42,-8.49 -0.66,-3.91 -5.4,-5.24 -4.96,-8.5 6.46,-3.98 8.09,6.91 12.05,9.91 1.51,-4.85 2.88,-9.86 2.83,-16.27 -2.32,-2.64 -7.17,-2.75 -8.5,-6.36 6.47,-3.95 15.98,5.11 26.93,3.53 0.77,2.95 0.65,3.58 -0.7,5.66 4.17,3.91 9.87,13.66 14.18,12.73 -1.71,-16.29 2.36,-30.66 0,-43.16zm55.28 -42.45l0 0c-0.73,2.71 -3.55,3.01 -4.95,5.67 -2.93,5.49 -0.03,14.33 -4.96,16.98 -3.64,-7.63 -7.08,-18.66 -17.01,-17.69 -9.05,4.07 -5.18,23.09 -9.22,28.3l10.62 0c22.17,-10.83 54.31,-12.25 80.09,-4.24 5.09,1.58 8.96,5.77 15.59,4.24 -5.57,-4.21 -0.26,-25.06 -10.63,-28.3 -2.86,0.9 -5.21,1.41 -7.09,2.83 -5.18,3.93 -4.92,12.45 -11.34,14.86 1.63,-19.52 -11.8,-29.68 -19.84,-14.86 -2.41,4.42 -0.26,12.38 -5.68,12.74 -0.42,-11.61 -5.61,-18.45 -15.59,-20.52zm66.62 4.25l0 0c2.88,3.96 3.49,10.19 6.39,14.15 3.28,-4.49 7.64,-7.92 12.75,-10.61 -4.09,-2.05 -4.9,-7.38 -7.09,-11.32 -2.82,3.78 -7.17,6.05 -12.05,7.78zm-118.35 3.54l0 0c5.9,1.42 8.57,6.07 12.75,9.19 2.1,-4.02 3.5,-8.78 5.67,-12.73 -4.78,-2.07 -8.93,-4.77 -12.76,-7.78 -0.97,4.69 -3.4,7.93 -5.67,11.32zm90 -9.91l0 0c2.01,3.66 4.47,6.87 7.09,9.91 1.94,-3.72 6.69,-4.64 9.21,-7.79 -3.35,-2.31 -4.6,-6.73 -7.08,-9.9 -1.87,3.79 -4.8,6.53 -9.23,7.78zm-58.81 2.83l0 0c3.83,1.84 6.7,4.63 9.92,7.07 0.32,-4.86 4.37,-6.02 5.68,-9.91 -4.12,-1.79 -7.26,-4.55 -9.94,-7.78 -0.81,4.61 -4.11,6.74 -5.66,10.61zm29.05 -3.54l0 0c3.58,2.08 5.16,6.16 9.21,7.78 1.54,-3.89 5.46,-5.39 7.8,-8.49 -4.08,-3.48 -5.82,-9.29 -8.51,-14.15 -1.6,6.18 -5.6,9.97 -8.5,14.86zm119.77 94.1l0 0c-3.4,-0.33 -2.53,3.6 -5.67,3.53 -1.03,-3.45 -2.79,-6.17 -4.25,-9.2 -2.46,2.02 -4.28,4.7 -7.08,6.37 -1.6,10.14 -5.1,28.71 0.7,38.2 1.75,-4.14 4.67,-7.13 9.93,-7.78 3.51,-10.72 4.8,-21.75 6.37,-31.12zm-82.92 94.1c44.3,-16.78 97.82,-0.51 138.21,5.66 37.67,5.75 80.04,9.32 119.07,-3.54 6.13,12.05 13.85,22.49 20.56,33.96 -38.59,33.18 -127.65,16.12 -175.77,3.55 -20.54,-3.15 -46,-6.3 -68.76,-2.84 -2.79,6.64 -5.62,13.24 -9.2,19.1 -30.81,-5.77 -75.48,-8.7 -104.9,0 -2.86,-6.58 -6.72,-12.15 -9.21,-19.1 -55.06,-5.52 -99.27,13.62 -150.97,16.27 -35.95,1.84 -69.77,-1.51 -93.56,-17.68 6.62,-12.97 14.99,-24.2 22.69,-36.09 76.03,34.36 172.19,-25.79 255.15,0 -15.98,-17.19 -30.98,-37.58 -42.52,-60.85 -3.17,10.99 -7.07,21.25 -14.89,27.6 4.51,7.53 14.74,9.35 17.02,19.11 -4.22,6.29 -13.99,2.8 -21.97,3.53 -9.92,0.91 -21.44,4.3 -30.48,2.12 -0.96,-8 -0.89,-17.03 -6.38,-20.52 -4.14,5.72 -3.72,12.86 0,18.4 -7.34,10.09 -29.22,11.51 -46.07,10.61 -11.96,-6.72 0.81,-17.48 3.55,-25.47 2.33,-6.81 1.66,-13.12 3.54,-19.1 -11.7,0.77 -26.08,3.46 -38.98,1.41 2.58,6.21 3.51,13.49 7.8,22.65 3.92,8.36 16.63,15.99 7.8,24.76 -13.31,2.16 -38.7,5.05 -49.62,-1.42 -3.33,-7.14 3.67,-12.35 0.71,-19.1 -5.23,0.43 -4.99,6.33 -8.51,8.49 1.17,4.34 6.36,7.37 3.55,13.44 -12.13,0.8 -52.78,-3.88 -31.89,-18.39 1.38,-13.11 1.44,-23.28 6.38,-31.84 3.58,-6.19 12.29,-9.56 10.63,-17.69 -3.97,-0.74 -4.71,7.46 -9.21,8.5 -3.95,-5.17 -1.74,-10.91 -2.13,-16.27 -0.63,-8.72 -4.34,-16.31 -4.96,-23.34 -0.64,-7.35 2.31,-12.92 3.55,-19.1 1.35,-6.76 0.14,-10.79 2.84,-15.57 4.33,-7.69 14.07,-12.95 22.69,-19.81 2.81,-2.24 4.7,-5.72 7.08,-7.78 7.13,-6.17 21.65,-12.5 33.31,-13.45 15.66,-1.26 29.66,2.78 42.53,-3.54 2.92,-1.43 5.24,-6.22 9.21,-7.78 6.56,-2.57 11.77,-0.95 18.43,2.83 13.17,-2.13 28.12,-10.34 41.11,-2.12 3.28,2.07 14.68,11.76 17.01,14.85 2.88,3.84 3.93,10.06 6.38,13.45 26.04,-0.48 7.79,-21.13 -4.96,-24.06 6.19,-4.44 5.77,-15.47 11.34,-20.52 5.76,3.68 9.92,8.96 17.01,11.32 8.68,-2.42 8.74,-13.43 14.88,-18.39 6.26,3.42 8.4,10.96 15.59,13.44 7.4,-3.47 11.03,-10.69 14.19,-18.4 1.09,-0.34 1.96,-0.49 2.67,-0.5 3.41,-0.02 2.93,3.42 4.42,6.16 2.4,4.45 7.97,10.07 9.92,12.74 9.51,-0.66 11.23,-9.07 17.01,-13.44 7.29,3.75 5.97,16.87 14.18,18.39 6.87,1.28 13.97,-7.52 17.71,-10.61 3.83,-0.04 4.79,2.77 4.26,7.07 2.46,4.62 5.18,8.98 7.8,13.44 -7.83,3.97 -15.87,7.73 -19.13,16.27 2.1,5.45 7.93,7.17 14.88,7.79 5.05,-12.65 15.06,-20.36 24.09,-29.01 13.03,-6.15 28.09,-0.01 38.98,2.83 8.23,-6.01 26.12,-4.48 28.35,5.66 24.95,5.07 56.71,-0.03 77.96,17.69 2.63,2.17 4.22,6.02 7.09,8.49 8.51,7.3 18.84,11.05 22.69,19.81 1.26,2.89 0.69,7.69 1.41,11.32 1.45,7.32 4.9,14.78 4.26,21.94 -0.46,5.19 -4.22,11.29 -4.97,18.39 -0.76,7.38 2.81,16.42 -3.54,20.52 -3.76,-1.43 -3.57,-6.81 -7.8,-7.79 -2.44,9.45 7.17,11.16 11.34,19.11 4.14,7.9 2.39,17.52 4.97,27.6 1.22,4.78 7.4,7.81 6.38,13.43 -8.46,5.98 -23.94,8.62 -36.86,7.79 -0.42,-8.83 5.19,-18.73 -4.97,-22.65 -4.84,8.46 7.65,16.89 -2.12,21.94 -4.98,2.56 -34.68,2.13 -41.82,0.71 -19.53,-3.87 -2.28,-18.07 1.41,-25.47 4.38,-8.77 4.15,-16.3 8.51,-23.35 -12.41,1.59 -27.3,0.68 -37.57,-2.12 -5.67,19 17.91,29.31 7.09,44.57 -8.07,1.86 -45.57,-0.06 -47.48,-9.91 -0.73,-3.73 3.28,-5.25 3.55,-8.48 0.33,-4.05 -2.79,-5.8 -3.55,-11.33 -6.72,3.67 -3.55,17.22 -8.51,22.64 -15.57,-3.08 -35.84,-1.48 -49.61,-6.37 -0.16,-12.19 12.85,-11.22 17.01,-19.1 -7.08,-7.09 -13.24,-15.08 -14.88,-27.59 -13.73,20.96 -25.75,43.64 -43.95,60.14z"/>
   <polygon class="fil0" points="154.11,231.85 156.59,231.66 157.88,248.6 166,247.98 166.15,250.04 155.55,250.84 "/>
   <polygon class="fil0" points="185.28,239.39 178.61,240.1 179.27,246.31 186.74,245.51 186.93,247.38 177.21,248.41 175.38,231.2 184.71,230.21 184.91,232.07 177.83,232.83 178.41,238.27 185.08,237.55 "/>
   <polygon class="fil0" points="201.53,229.46 195.8,230.38 195.48,228.31 209.41,226.08 209.74,228.15 203.99,229.06 206.68,245.8 204.21,246.2 "/>
   <polygon class="fil0" points="240.04,223.73 234.31,224.64 233.98,222.58 247.92,220.35 248.26,222.42 242.5,223.33 245.19,240.07 242.73,240.46 "/>
   <path class="fil0" d="M260.15 218.47l0 0c1.19,-0.42 2.96,-0.86 4.61,-1.1 2.61,-0.39 4.39,-0.13 5.72,0.76 1.04,0.68 1.79,1.88 2,3.37 0.37,2.45 -0.99,4.34 -2.85,5.3l0.01 0.09c1.51,0.29 2.56,1.51 3.33,3.39 1,2.54 1.72,4.29 2.19,4.96l-2.51 0.37c-0.39,-0.49 -1.05,-2.05 -1.9,-4.32 -0.94,-2.52 -2.12,-3.35 -4.34,-3.1l-2.3 0.33 1.2 8.16 -2.44 0.35 -2.72 -18.56zm3.69 8.2l2.49 -0.36c2.61,-0.38 4.05,-2.05 3.73,-4.21 -0.35,-2.43 -2.28,-3.23 -4.85,-2.85 -1.18,0.17 -1.97,0.4 -2.37,0.57l1.01 6.85z"/>
   <path class="fil0" d="M284.68 214.83l1.28 11.22c0.49,4.21 2.57,5.79 5.11,5.51 2.77,-0.32 4.39,-2.38 3.92,-6.53l-1.29 -11.23 2.47 -0.28 1.26 11.06c0.67,5.81 -2.12,8.52 -6.23,8.99 -3.88,0.45 -7.05,-1.41 -7.73,-7.3l-1.28 -11.14 2.48 -0.29z"/>
   <polygon class="fil0" points="311.43,216.75 305.66,216.25 305.84,214.17 319.9,215.39 319.73,217.47 313.91,216.97 312.46,233.85 309.98,233.64 "/>
   <polygon class="fil0" points="332.39,216.76 330.85,224.58 339.9,226.33 341.44,218.52 343.88,218.99 340.23,237.68 337.79,237.2 339.5,228.44 330.45,226.68 328.74,235.44 326.29,234.97 329.94,216.28 "/>
   <path class="fil0" d="M435.21 217.37l0 0c1.13,-0.43 2.63,-0.88 4.58,-1.23 2.4,-0.42 4.25,-0.19 5.55,0.61 1.19,0.71 2.08,1.96 2.37,3.62 0.31,1.7 0.04,3.12 -0.74,4.27 -1.04,1.59 -3,2.66 -5.37,3.09 -0.72,0.13 -1.39,0.22 -1.98,0.18l1.36 7.51 -2.42 0.43 -3.34 -18.48zm4.04 8.57c0.56,0.04 1.27,-0.03 2.05,-0.17 2.95,-0.53 4.44,-2.29 3.99,-4.82 -0.45,-2.5 -2.42,-3.39 -5.1,-2.9 -1.06,0.19 -1.84,0.45 -2.25,0.6l1.31 7.29z"/>
   <path class="fil0" d="M461.76 214.64l0 0c1.23,-0.3 3.04,-0.52 4.7,-0.57 2.63,-0.08 4.38,0.37 5.6,1.4 0.96,0.79 1.56,2.07 1.61,3.57 0.08,2.48 -1.48,4.2 -3.44,4.94l0 0.08c1.46,0.46 2.38,1.79 2.93,3.75 0.7,2.64 1.21,4.46 1.6,5.18l-2.54 0.08c-0.34,-0.53 -0.81,-2.15 -1.39,-4.51 -0.64,-2.6 -1.72,-3.56 -3.95,-3.57l-2.33 0.07 0.26 8.24 -2.46 0.07 -0.59 -18.74zm2.74 8.56l2.51 -0.07c2.63,-0.09 4.25,-1.58 4.18,-3.76 -0.07,-2.46 -1.89,-3.47 -4.5,-3.4 -1.19,0.04 -2.01,0.18 -2.43,0.31l0.23 6.92z"/>
   <polygon class="fil0" points="498.53,224.8 491.16,224.96 491.3,231.82 499.55,231.65 499.6,233.71 488.85,233.93 488.46,214.9 498.78,214.69 498.83,216.75 490.99,216.91 491.11,222.92 498.5,222.77 "/>
   <path class="fil0" d="M514.97 236.85l-3.78 -19.67 2.66 0.34 1.76 9.68c0.46,2.64 0.86,5.06 1.11,7.31l0.06 0.01c0.81,-2.11 1.88,-4.41 3.06,-6.76l4.39 -8.92 2.61 0.33 -9.17 18.02 -2.7 -0.35z"/>
   <path class="fil0" d="M535.56 234.91l0 0 -2.99 5.55 -2.51 -0.45 9.71 -17.61 2.93 0.52 3.08 19.88 -2.59 -0.46 -0.96 -6.25 -6.66 -1.17zm6.5 -0.8l-0.91 -5.72c-0.18,-1.3 -0.26,-2.46 -0.34,-3.59l-0.09 -0.02c-0.44,1.04 -0.96,2.15 -1.52,3.23l-2.8 5.1 5.65 1z"/>
   <polygon class="fil0" points="561.14,227.86 558.68,246.74 556.2,246.42 558.68,227.55 "/>
   <polygon class="fil0" points="574.03,230.47 576.5,230.76 574.52,247.62 582.62,248.56 582.37,250.62 571.8,249.37 "/>
   <path class="fil1" d="M107.94 293.55l0 12.29 -1.21 0c-0.72,-2.84 -1.51,-4.87 -2.38,-6.11 -0.87,-1.24 -2.07,-2.23 -3.58,-2.97 -0.85,-0.4 -2.33,-0.6 -4.45,-0.6l-3.38 0 0 35.03c0,2.32 0.13,3.77 0.39,4.35 0.26,0.58 0.76,1.09 1.51,1.52 0.75,0.44 1.77,0.65 3.06,0.65l1.51 0 0 1.24 -23.78 0 0 -1.24 1.51 0c1.32,0 2.38,-0.23 3.18,-0.7 0.58,-0.31 1.04,-0.85 1.37,-1.61 0.25,-0.54 0.37,-1.94 0.37,-4.22l0 -35.03 -3.28 0c-3.06,0 -5.28,0.65 -6.67,1.94 -1.94,1.81 -3.17,4.39 -3.68,7.74l-1.27 0 0 -12.29 40.8 0z"/>
   <path class="fil1" d="M129.17 317.14l0 14.07c0,2.32 0.13,3.77 0.39,4.35 0.26,0.58 0.76,1.09 1.51,1.53 0.75,0.43 1.76,0.65 3.03,0.65l1.51 0 0 1.24 -23.75 0 0 -1.24 1.51 0c1.32,0 2.38,-0.24 3.18,-0.7 0.58,-0.31 1.03,-0.85 1.34,-1.61 0.25,-0.54 0.37,-1.94 0.37,-4.22l0 -29.88c0,-2.32 -0.12,-3.77 -0.37,-4.35 -0.25,-0.58 -0.74,-1.09 -1.49,-1.52 -0.75,-0.43 -1.76,-0.65 -3.03,-0.65l-1.51 0 0 -1.24 23.75 0 0 1.24 -1.51 0c-1.32,0 -2.38,0.23 -3.18,0.7 -0.58,0.31 -1.04,0.85 -1.37,1.61 -0.25,0.54 -0.37,1.94 -0.37,4.22l0 12.86 16.05 0 0 -12.86c0,-2.32 -0.13,-3.77 -0.37,-4.35 -0.25,-0.58 -0.75,-1.09 -1.51,-1.52 -0.76,-0.43 -1.78,-0.65 -3.05,-0.65l-1.47 0 0 -1.24 23.71 0 0 1.24 -1.47 0c-1.34,0 -2.4,0.23 -3.18,0.7 -0.58,0.31 -1.04,0.85 -1.37,1.61 -0.25,0.54 -0.37,1.94 -0.37,4.22l0 29.88c0,2.32 0.12,3.77 0.37,4.35 0.25,0.58 0.75,1.09 1.51,1.53 0.76,0.43 1.78,0.65 3.05,0.65l1.47 0 0 1.24 -23.71 0 0 -1.24 1.47 0c1.34,0 2.4,-0.24 3.18,-0.7 0.58,-0.31 1.04,-0.85 1.37,-1.61 0.25,-0.54 0.37,-1.94 0.37,-4.22l0 -14.07 -16.05 0z"/>
   <path class="fil1" d="M182.46 296.17l0 18.49 0.91 0c2.88,0 4.97,-0.9 6.26,-2.71 1.3,-1.81 2.12,-4.48 2.48,-8.01l1.27 0 0 23.78 -1.27 0c-0.27,-2.59 -0.83,-4.71 -1.69,-6.36 -0.86,-1.65 -1.86,-2.77 -3,-3.33 -1.14,-0.57 -2.79,-0.86 -4.96,-0.86l0 12.8c0,2.5 0.11,4.03 0.32,4.59 0.21,0.56 0.61,1.02 1.19,1.37 0.58,0.36 1.52,0.54 2.81,0.54l2.71 0c4.24,0 7.64,-0.98 10.2,-2.95 2.56,-1.97 4.39,-4.96 5.51,-8.98l1.24 0 -2.04 14.43 -39.26 0 0 -1.24 1.51 0c1.32,0 2.38,-0.23 3.18,-0.7 0.58,-0.31 1.03,-0.85 1.34,-1.61 0.25,-0.54 0.37,-1.95 0.37,-4.22l0 -29.88c0,-2.06 -0.05,-3.32 -0.17,-3.79 -0.22,-0.78 -0.64,-1.38 -1.24,-1.81 -0.85,-0.62 -2.01,-0.94 -3.48,-0.94l-1.51 0 0 -1.24 38.02 0 0 13.43 -1.27 0c-0.65,-3.28 -1.56,-5.64 -2.73,-7.07 -1.17,-1.43 -2.83,-2.48 -4.97,-3.15 -1.25,-0.4 -3.6,-0.6 -7.03,-0.6l-4.69 0z"/>
   <path class="fil1" d="M268.71 293.55l0 12.29 -1.21 0c-0.71,-2.84 -1.51,-4.87 -2.38,-6.11 -0.87,-1.24 -2.07,-2.23 -3.58,-2.97 -0.85,-0.4 -2.33,-0.6 -4.45,-0.6l-3.38 0 0 35.03c0,2.32 0.13,3.77 0.39,4.35 0.26,0.58 0.76,1.09 1.51,1.52 0.75,0.44 1.77,0.65 3.06,0.65l1.51 0 0 1.24 -23.78 0 0 -1.24 1.51 0c1.32,0 2.38,-0.23 3.18,-0.7 0.58,-0.31 1.04,-0.85 1.37,-1.61 0.24,-0.54 0.37,-1.94 0.37,-4.22l0 -35.03 -3.28 0c-3.06,0 -5.28,0.65 -6.67,1.94 -1.94,1.81 -3.17,4.39 -3.68,7.74l-1.27 0 0 -12.29 40.8 0z"/>
   <path class="fil1" d="M296.3 337.73l0 1.24 -23.75 0 0 -1.24 1.51 0c1.32,0 2.38,-0.23 3.18,-0.7 0.58,-0.31 1.03,-0.85 1.34,-1.61 0.24,-0.53 0.37,-1.94 0.37,-4.22l0 -29.88c0,-2.32 -0.12,-3.77 -0.37,-4.35 -0.25,-0.58 -0.74,-1.09 -1.49,-1.52 -0.75,-0.44 -1.76,-0.65 -3.03,-0.65l-1.51 0 0 -1.24 23.75 0 0 1.24 -1.51 0c-1.32,0 -2.38,0.23 -3.18,0.7 -0.58,0.31 -1.04,0.85 -1.37,1.61 -0.25,0.53 -0.37,1.94 -0.37,4.22l0 29.88c0,2.32 0.13,3.77 0.38,4.35 0.26,0.58 0.76,1.09 1.51,1.52 0.75,0.44 1.76,0.65 3.03,0.65l1.51 0z"/>
   <path class="fil1" d="M330.57 323.5l12.33 -29.94 18.49 0 0 1.24 -1.47 0c-1.34,0 -2.41,0.23 -3.21,0.7 -0.56,0.32 -1.01,0.84 -1.34,1.58 -0.25,0.54 -0.37,1.93 -0.37,4.18l0 29.95c0,2.32 0.12,3.77 0.37,4.35 0.25,0.58 0.75,1.09 1.51,1.52 0.76,0.43 1.77,0.65 3.05,0.65l1.47 0 0 1.24 -23.72 0 0 -1.24 1.47 0c1.34,0 2.41,-0.24 3.22,-0.7 0.56,-0.32 1,-0.85 1.34,-1.61 0.25,-0.54 0.37,-1.95 0.37,-4.22l0 -33.66 -17.42 41.43 -0.81 0 -17.69 -41.13 0 31.99c0,2.23 0.06,3.61 0.17,4.12 0.29,1.12 0.92,2.03 1.89,2.73 0.97,0.7 2.49,1.05 4.57,1.05l0 1.24 -15.54 0 0 -1.24 0.47 0c1,0.02 1.94,-0.14 2.81,-0.49 0.87,-0.35 1.53,-0.81 1.98,-1.39 0.45,-0.58 0.79,-1.39 1.04,-2.44 0.04,-0.24 0.07,-1.38 0.07,-3.42l0 -28.74c0,-2.3 -0.12,-3.73 -0.37,-4.3 -0.25,-0.57 -0.75,-1.07 -1.51,-1.51 -0.76,-0.44 -1.77,-0.65 -3.05,-0.65l-1.44 0 0 -1.24 18.56 0 12.76 29.94z"/>
   <path class="fil1" d="M381.31 296.17l0 18.49 0.91 0c2.88,0 4.97,-0.9 6.26,-2.71 1.3,-1.81 2.12,-4.48 2.48,-8.01l1.27 0 0 23.78 -1.27 0c-0.27,-2.59 -0.83,-4.71 -1.69,-6.36 -0.86,-1.65 -1.86,-2.77 -3,-3.33 -1.14,-0.57 -2.79,-0.86 -4.96,-0.86l0 12.8c0,2.5 0.11,4.03 0.32,4.59 0.21,0.56 0.61,1.02 1.19,1.37 0.58,0.36 1.52,0.54 2.81,0.54l2.71 0c4.24,0 7.64,-0.98 10.2,-2.95 2.56,-1.97 4.39,-4.96 5.51,-8.98l1.24 0 -2.04 14.43 -39.25 0 0 -1.24 1.51 0c1.32,0 2.38,-0.23 3.18,-0.7 0.58,-0.31 1.03,-0.85 1.34,-1.61 0.25,-0.54 0.37,-1.95 0.37,-4.22l0 -29.88c0,-2.06 -0.06,-3.32 -0.17,-3.79 -0.22,-0.78 -0.63,-1.38 -1.24,-1.81 -0.85,-0.62 -2.01,-0.94 -3.48,-0.94l-1.51 0 0 -1.24 38.01 0 0 13.43 -1.27 0c-0.65,-3.28 -1.56,-5.64 -2.73,-7.07 -1.17,-1.43 -2.83,-2.48 -4.97,-3.15 -1.25,-0.4 -3.6,-0.6 -7.03,-0.6l-4.69 0z"/>
   <path class="fil1" d="M440.59 292.52l0.37 15.14 -1.37 0c-0.65,-3.79 -2.24,-6.85 -4.77,-9.16 -2.53,-2.31 -5.27,-3.47 -8.22,-3.47 -2.28,0 -4.08,0.61 -5.41,1.83 -1.33,1.22 -1.99,2.62 -1.99,4.2 0,1.01 0.23,1.9 0.7,2.68 0.65,1.05 1.69,2.09 3.12,3.12 1.05,0.74 3.47,2.04 7.27,3.92 5.31,2.61 8.9,5.08 10.75,7.4 1.83,2.32 2.75,4.98 2.75,7.97 0,3.79 -1.48,7.06 -4.44,9.8 -2.96,2.74 -6.72,4.1 -11.27,4.1 -1.43,0 -2.78,-0.14 -4.05,-0.44 -1.27,-0.29 -2.87,-0.84 -4.79,-1.64 -1.07,-0.45 -1.96,-0.67 -2.65,-0.67 -0.58,0 -1.19,0.22 -1.84,0.67 -0.65,0.45 -1.17,1.13 -1.57,2.04l-1.24 0 0 -17.15 1.24 0c0.98,4.82 2.88,8.5 5.68,11.04 2.8,2.53 5.82,3.8 9.06,3.8 2.5,0 4.5,-0.68 5.98,-2.04 1.48,-1.36 2.23,-2.95 2.23,-4.75 0,-1.07 -0.28,-2.11 -0.85,-3.12 -0.57,-1.01 -1.44,-1.96 -2.6,-2.86 -1.16,-0.9 -3.22,-2.08 -6.16,-3.53 -4.13,-2.03 -7.1,-3.76 -8.91,-5.19 -1.81,-1.43 -3.2,-3.03 -4.17,-4.79 -0.97,-1.76 -1.46,-3.71 -1.46,-5.83 0,-3.62 1.33,-6.7 3.99,-9.24 2.66,-2.55 6.01,-3.82 10.04,-3.82 1.47,0 2.9,0.18 4.29,0.54 1.05,0.27 2.33,0.76 3.83,1.49 1.51,0.73 2.56,1.09 3.16,1.09 0.58,0 1.04,-0.18 1.38,-0.54 0.33,-0.36 0.65,-1.22 0.94,-2.58l1 0z"/>
   <path class="fil1" d="M511 292.52l0 16.01 -1.24 0c-1.49,-4.37 -3.74,-7.7 -6.73,-9.98 -2.99,-2.28 -6.26,-3.42 -9.81,-3.42 -3.39,0 -6.22,0.95 -8.47,2.86 -2.25,1.91 -3.85,4.57 -4.79,7.99 -0.94,3.42 -1.41,6.92 -1.41,10.52 0,4.35 0.51,8.17 1.54,11.45 1.03,3.28 2.69,5.69 4.98,7.23 2.29,1.54 5.01,2.31 8.15,2.31 1.09,0 2.21,-0.12 3.37,-0.35 1.15,-0.24 2.33,-0.58 3.53,-1.02l0 -9.44c0,-1.79 -0.12,-2.94 -0.37,-3.47 -0.25,-0.53 -0.75,-1 -1.53,-1.42 -0.77,-0.42 -1.7,-0.63 -2.8,-0.63l-1.17 0 0 -1.24 22.07 0 0 1.24c-1.67,0.11 -2.84,0.34 -3.5,0.69 -0.66,0.35 -1.17,0.92 -1.52,1.72 -0.2,0.42 -0.3,1.46 -0.3,3.12l0 9.44c-2.91,1.3 -5.92,2.27 -9.06,2.93 -3.14,0.66 -6.39,0.99 -9.76,0.99 -4.31,0 -7.89,-0.59 -10.73,-1.76 -2.85,-1.17 -5.36,-2.71 -7.54,-4.62 -2.18,-1.91 -3.88,-4.06 -5.11,-6.45 -1.56,-3.08 -2.35,-6.53 -2.35,-10.35 0,-6.83 2.4,-12.61 7.2,-17.32 4.8,-4.71 10.84,-7.07 18.12,-7.07 2.25,0 4.29,0.18 6.1,0.54 0.98,0.18 2.57,0.69 4.77,1.52 2.2,0.84 3.5,1.26 3.9,1.26 0.62,0 1.21,-0.23 1.74,-0.69 0.54,-0.46 1.03,-1.32 1.47,-2.6l1.24 0z"/>
   <path class="fil1" d="M535.25 296l0 19.9 1.91 0c3.1,0 5.43,-0.28 6.97,-0.86 1.54,-0.57 2.75,-1.59 3.63,-3.08 0.88,-1.49 1.33,-3.42 1.33,-5.81 0,-3.46 -0.81,-6.01 -2.43,-7.67 -1.62,-1.65 -4.23,-2.48 -7.82,-2.48l-3.58 0zm0 22.27l0 12.73c0,2.46 0.15,4 0.45,4.64 0.3,0.63 0.83,1.15 1.59,1.52 0.76,0.38 2.18,0.57 4.25,0.57l0 1.24 -23.25 0 0 -1.24c2.1,0 3.52,-0.19 4.27,-0.58 0.75,-0.39 1.27,-0.9 1.57,-1.52 0.3,-0.63 0.45,-2.17 0.45,-4.62l0 -29.48c0,-2.45 -0.15,-4 -0.45,-4.64 -0.3,-0.63 -0.83,-1.15 -1.59,-1.52 -0.76,-0.38 -2.18,-0.57 -4.25,-0.57l0 -1.24 21.1 0c5.5,0 9.52,0.38 12.06,1.14 2.55,0.76 4.62,2.16 6.23,4.21 1.61,2.04 2.41,4.43 2.41,7.18 0,3.35 -1.2,6.12 -3.62,8.31 -1.54,1.38 -3.69,2.42 -6.46,3.12l10.92 15.37c1.43,1.99 2.45,3.23 3.05,3.72 0.91,0.69 1.98,1.07 3.18,1.14l0 1.24 -14.3 0 -14.64 -20.7 -2.98 0z"/>
   <path class="fil1" d="M593.46 295.06c-4.15,0 -7.31,2.12 -9.48,6.36 -1.76,3.48 -2.64,8.48 -2.64,15 0,7.75 1.36,13.48 4.08,17.18 1.9,2.59 4.56,3.88 7.97,3.88 2.3,0 4.22,-0.56 5.76,-1.67 1.97,-1.43 3.5,-3.71 4.59,-6.85 1.09,-3.14 1.64,-7.23 1.64,-12.27 0,-6.01 -0.56,-10.5 -1.68,-13.48 -1.12,-2.98 -2.54,-5.09 -4.27,-6.32 -1.73,-1.23 -3.72,-1.84 -5.98,-1.84zm-0.4 -2.14c7.23,-0.27 13.11,1.84 17.63,6.33 4.52,4.49 6.78,10.1 6.78,16.85 0,5.76 -1.69,10.83 -5.06,15.21 -4.46,5.81 -10.77,8.71 -18.92,8.71 -8.17,0 -14.49,-2.77 -18.96,-8.31 -3.53,-4.38 -5.29,-9.57 -5.29,-15.57 0,-6.74 2.29,-12.36 6.88,-16.86 4.59,-4.5 10.23,-6.61 16.93,-6.35z"/>
   <path class="fil1" d="M621.53 293.55l23.45 0 0 1.24 -1.17 0c-1.76,0 -2.97,0.18 -3.63,0.55 -0.66,0.37 -1.13,0.88 -1.41,1.53 -0.28,0.65 -0.42,2.27 -0.42,4.85l0 22.24c0,4.07 0.31,6.75 0.92,8.07 0.62,1.32 1.63,2.41 3.03,3.28 1.41,0.87 3.18,1.31 5.33,1.31 2.46,0 4.55,-0.55 6.28,-1.66 1.73,-1.1 3.02,-2.63 3.88,-4.57 0.86,-1.94 1.29,-5.32 1.29,-10.15l0 -18.52c0,-2.03 -0.21,-3.48 -0.63,-4.35 -0.42,-0.87 -0.96,-1.48 -1.61,-1.81 -1.01,-0.52 -2.42,-0.77 -4.25,-0.77l0 -1.24 15.71 0 0 1.24 -0.94 0c-1.27,0 -2.33,0.25 -3.18,0.77 -0.85,0.51 -1.46,1.28 -1.84,2.31 -0.29,0.72 -0.44,2 -0.44,3.85l0 17.25c0,5.34 -0.35,9.19 -1.05,11.56 -0.7,2.37 -2.42,4.54 -5.14,6.53 -2.73,1.99 -6.44,2.98 -11.15,2.98 -3.93,0 -6.97,-0.53 -9.11,-1.58 -2.93,-1.43 -4.99,-3.26 -6.2,-5.49 -1.21,-2.23 -1.81,-5.23 -1.81,-9.01l0 -22.24c0,-2.61 -0.14,-4.23 -0.43,-4.87 -0.29,-0.64 -0.79,-1.14 -1.51,-1.52 -0.72,-0.38 -2.03,-0.56 -3.95,-0.53l0 -1.24z"/>
   <path class="fil1" d="M687.98 296.17l0 19.63c0.74,0.04 1.29,0.07 1.67,0.07 2.72,0 4.82,-0.81 6.3,-2.43 1.47,-1.62 2.21,-4.12 2.21,-7.52 0,-3.37 -0.74,-5.84 -2.21,-7.4 -1.47,-1.56 -3.67,-2.34 -6.6,-2.34l-1.37 0zm0 22.24l0 12.59c0,2.46 0.15,4 0.45,4.64 0.3,0.63 0.84,1.15 1.61,1.52 0.77,0.38 2.18,0.57 4.24,0.57l0 1.24 -23.08 0 0 -1.24c2.1,0 3.52,-0.19 4.27,-0.58 0.75,-0.39 1.27,-0.9 1.57,-1.52 0.3,-0.63 0.45,-2.17 0.45,-4.62l0 -29.48c0,-2.46 -0.15,-4 -0.45,-4.64 -0.3,-0.64 -0.83,-1.15 -1.59,-1.52 -0.76,-0.38 -2.18,-0.57 -4.25,-0.57l0 -1.24 19.8 0c6.52,0 11.2,1.16 14.03,3.48 2.84,2.32 4.25,5.22 4.25,8.71 0,2.95 -0.92,5.47 -2.75,7.57 -1.83,2.1 -4.35,3.53 -7.57,4.28 -2.16,0.54 -5.83,0.81 -10.98,0.81z"/>
  </g>
 </g>
</svg>
