<?xml version="1.0" encoding="UTF-8"?>
<!DOCTYPE svg PUBLIC "-//W3C//DTD SVG 1.1//EN" "http://www.w3.org/Graphics/SVG/1.1/DTD/svg11.dtd">
<!-- Creator: CorelDRAW 2021 (64-Bit) -->
<svg xmlns="http://www.w3.org/2000/svg" xml:space="preserve" width="38.2509mm" height="12.2109mm" version="1.1" style="shape-rendering:geometricPrecision; text-rendering:geometricPrecision; image-rendering:optimizeQuality; fill-rule:evenodd; clip-rule:evenodd"
viewBox="0 0 2248.15 717.68"
 xmlns:xlink="http://www.w3.org/1999/xlink"
 xmlns:xodm="http://www.corel.com/coreldraw/odm/2003">
 <defs>
  <style type="text/css">
   <![CDATA[
    .fil2 {fill:#FEFEFE}
    .fil4 {fill:#FEFEFE}
    .fil1 {fill:#DC1F32}
    .fil0 {fill:#A92235}
    .fil3 {fill:#1E4C9A}
   ]]>
  </style>
 </defs>
 <g id="Layer_x0020_1">
  <metadata id="CorelCorpID_0Corel-Layer"/>
  <g id="_3019295488560">
   <path class="fil0" d="M288.36 663.07c3.48,1.9 10.45,-3.43 14.02,-5.62 26.02,-15.94 42.93,-26.91 67.28,-45.87 5.68,-4.42 21.58,-16.6 24.34,-21.01 -0.85,-2.46 21.16,-80.76 23.94,-90.97 4.21,-15.45 8.4,-30.86 12.44,-46.1 3.48,-13.14 10.7,-34.32 12.32,-46.91 -4.08,-15.38 -30.03,-42.87 -44.13,-55.64l-23.18 -19.98c-11.24,-9.1 -44.86,-31.36 -48.72,-37.14 9.67,2.82 35.35,14.56 38.9,14.33 7.34,-0.48 -4.92,1.36 1.8,-0.38l1.71 -0.77c0.66,-3.6 -1.8,-5.51 -4.4,-7.44 -3.03,-2.25 -4.37,-3.38 -7.49,-5.88 -16.42,-13.18 -26.57,-24.14 -37.07,-45.22 -12.89,-25.88 -22.53,-55.33 -16.72,-88.9 8.25,-47.6 47.11,-80.93 91.56,-58.54 8.85,4.46 23.67,17.43 20.86,33.16 -4.03,0.38 -5.83,-0.42 -9.44,0.81 -3.51,1.2 -2.82,2.23 -7.82,2.53 -4.07,-5.41 -7.43,-18.78 -26.44,-17.16 -25.15,2.16 -44.98,49.55 -18.14,91.3 24.74,38.47 75.95,47.2 132.22,34.52 10.13,-34.46 18.94,-69.43 28.19,-104.09 3.58,-13.4 25.18,-98.26 28.34,-102.92 -8.15,-12.51 -93.04,-25.59 -117.34,-28.99 -41.07,-5.74 -87.7,-10.11 -134.14,-10.2l-1.4 0c-1.16,54.59 -0.06,110.48 -0.06,165.22l0.1 492.68c-0.25,4.21 -0.47,3.9 -1.53,5.17z"/>
   <path class="fil1" d="M38.1 39.41l56.14 206.98c13.94,1.71 24.76,4.67 39.98,5.52 36.77,2.06 72.63,-11.81 92.26,-40.59 12.84,-18.84 17.13,-47.64 6.03,-70.55 -13.42,-27.72 -39.09,-23.77 -47.38,-9.65 -0.81,1.39 -1.08,2.31 -1.68,3.43l-2.21 3.17c-5,-0.72 -4.16,-1.81 -7.68,-2.86 -3.55,-1.06 -6.48,-0.11 -9.22,-1.28 -3.75,-13.44 12.67,-28.23 20.45,-32.55 37.03,-20.56 82.49,4.16 92.01,58.39 7.07,40.27 -11.82,95.23 -39.6,121.07 -6.99,6.5 -4.14,5.22 -13.75,12.97 -7.14,5.75 -12.7,8.27 -12.34,14.49 10.48,1.52 32.06,-13.45 42.65,-13.85l-7.12 6.08c-3.02,2.3 -5.58,4.17 -8.25,6.12 -14.29,10.51 -44.81,32 -56.75,44.03 -2.81,2.83 -4.38,4.84 -6.97,7.41l-14.12 14.68c-8.56,10.25 -16.96,20.39 -23.62,34.14 2.89,3.87 22.4,80.62 25.63,92.35 4.27,15.58 8.4,31.18 12.62,46.91 3.73,13.87 10.07,32.73 12.32,46.4 15.3,15.79 80.91,62.49 100.86,70.85 1.06,-1.28 1.28,-0.96 1.53,-5.17l-0.1 -492.68c0,-54.74 -1.1,-110.62 0.06,-165.22l-1.39 0c-46.21,0.08 -93.12,4.47 -134.04,10.2 -24.93,3.49 -80.91,12.37 -104.71,21.89 -5.07,2.03 -9.3,2.98 -11.61,7.33z"/>
   <path class="fil2" d="M94.24 246.39c-10.98,-1.27 -19.69,0.78 -28.05,5.34 -8.08,4.39 -11.15,9.83 -16.79,17.1 -21.98,28.34 -34.54,7.83 -45.43,9.56 6.24,53.07 23.32,100.96 44.6,143.27 10.54,20.95 23.29,41.17 35.25,58.22 5.37,7.66 34.4,46.21 41.41,51.8 -1.25,-10.2 -4.15,-20.21 -5.32,-31.51 -1.25,-12.1 -1.4,-23.83 -0.26,-36.29 1.56,-17.11 9,-45.34 17.27,-57.3 6.65,-13.74 15.05,-23.89 23.62,-34.14l14.12 -14.68c2.59,-2.57 4.16,-4.58 6.97,-7.41 11.93,-12.03 42.46,-33.51 56.75,-44.03 2.67,-1.96 5.23,-3.83 8.25,-6.12l7.12 -6.08c-10.59,0.41 -32.17,15.37 -42.65,13.85 -0.35,-6.22 5.21,-8.74 12.34,-14.49 9.62,-7.75 6.76,-6.47 13.75,-12.97 27.78,-25.84 46.67,-80.81 39.6,-121.07 -9.52,-54.22 -54.98,-78.95 -92.01,-58.39 -7.78,4.32 -24.2,19.11 -20.45,32.55 2.74,1.17 5.67,0.21 9.22,1.28 3.51,1.05 2.68,2.14 7.68,2.86l2.21 -3.17c0.61,-1.12 0.87,-2.05 1.68,-3.43 8.29,-14.12 33.96,-18.07 47.38,9.65 11.1,22.9 6.81,51.7 -6.03,70.55 -19.62,28.78 -55.48,42.65 -92.26,40.59 -15.22,-0.85 -26.04,-3.81 -39.98,-5.52z"/>
   <path class="fil2" d="M442.69 406.59c8.23,8.72 16.25,41.82 17.79,57.2 1.81,18.03 0.28,40.99 -3.91,59.03l-0.29 8.35c12.97,-16.19 28.84,-34.24 40.35,-51.67 12.3,-18.63 23.82,-35.89 34.86,-57.6 21.85,-42.99 36.84,-87.49 44.48,-141.06 -0.14,-3.09 0.35,-1.24 -1.32,-2.74 -8.34,2.23 -16.66,7.75 -25.64,5.04 -25.26,-7.65 -18.15,-38.83 -62.81,-36.93 -56.28,12.68 -107.49,3.94 -132.22,-34.52 -26.84,-41.75 -7.01,-89.14 18.14,-91.3 19,-1.63 22.37,11.74 26.44,17.16 5.01,-0.29 4.31,-1.33 7.82,-2.53 3.61,-1.23 5.41,-0.43 9.44,-0.81 2.81,-15.73 -12.01,-28.71 -20.86,-33.16 -44.45,-22.39 -83.31,10.94 -91.56,58.54 -5.81,33.57 3.82,63.02 16.72,88.9 10.51,21.08 20.66,32.04 37.07,45.22 3.13,2.5 4.47,3.64 7.49,5.88 2.6,1.93 5.05,3.84 4.4,7.44l-1.71 0.77c-6.72,1.74 5.54,-0.1 -1.8,0.38 -3.55,0.22 -29.22,-11.51 -38.9,-14.33 3.86,5.78 37.48,28.04 48.72,37.14l23.18 19.98c14.1,12.77 40.05,40.26 44.13,55.64z"/>
   <path class="fil3" d="M575.97 280.83c-7.64,53.57 -22.63,98.07 -44.48,141.06 -11.04,21.71 -22.56,38.97 -34.86,57.6 -11.51,17.43 -27.38,35.48 -40.35,51.67 -3.25,1.56 -4.54,5.01 -7.36,7.54 -3.23,2.9 -4.62,4.74 -7.44,7.96 -13.51,15.39 -20.81,19.3 -31.14,30.53 -2.37,2.58 -13.45,12.19 -16.34,13.38 -2.76,4.41 -18.66,16.59 -24.34,21.01 -24.35,18.95 -41.26,29.93 -67.28,45.87 -3.57,2.19 -10.54,7.53 -14.02,5.62 -19.95,-8.36 -85.55,-55.06 -100.86,-70.85 -4.03,-1.85 -12.54,-10.99 -16.67,-14.31 -5.38,-4.34 -10.94,-10.16 -15.86,-15 -9.98,-9.82 -20.42,-19.84 -29.73,-31.24 -7.01,-5.59 -36.05,-44.14 -41.41,-51.8 -11.95,-17.06 -24.71,-37.27 -35.25,-58.22 -21.28,-42.31 -38.36,-90.19 -44.6,-143.27l-2.96 -23.69c-0.45,0.83 -0.79,2.23 -1.03,4.06l0 42.54 2.33 19.82c1.84,18.43 5.08,38.42 9.49,56.06 18.14,72.57 44.99,120.4 87.37,177.7 6.33,8.56 13.02,15.79 19.4,23.79 1.83,2.29 2.94,3.08 4.91,5.31l16.11 17.84c39.03,40.99 74.89,67.9 121.63,99.46 3.61,2.44 24.65,15.56 27.76,16.34 7.45,1.88 67.74,-42.42 79.12,-51.1 102.35,-78.16 187.25,-192.04 206.92,-323.31 0.99,-6.65 3.67,-36.83 4.75,-39.42l0 -54.96c-1.97,2.77 -2.67,26.18 -3.84,32.01z"/>
   <path class="fil4" d="M742.51 286.32c-10.9,0 -20.59,0.25 -20.59,-17.44l0 -79.03c15.05,0 31.61,1.51 42.69,10.83 18.88,15.89 25.21,85.65 -22.1,85.65zm-20.59 -106.73l0 -71.84c0,-7.43 3.7,-11.43 10.26,-12.43 4.88,-0.74 16.08,-0.09 21.51,2.32 17.59,7.83 18.76,41.24 14.15,58.96 -1.73,6.65 -4.34,9.99 -8.56,14.05 -7.62,7.35 -22.76,8.95 -37.36,8.95zm-79.3 -86.2c9.5,0 21.1,1.53 25.29,9.69 1.23,2.41 2.52,6.63 2.52,9.8l0 154.97c0,27.05 -27.81,15.79 -27.81,23.6l0 6.16 110.19 0c20.41,0 36.96,-5.35 50.47,-12.3 7.95,-4.09 11.14,-7.61 17.25,-13.6 19.25,-18.94 16.09,-49.86 0.01,-67.25 -8.87,-9.6 -30.05,-20.48 -43.02,-20.76l0 -2.06c13.38,-3.1 20.18,-6.36 29.73,-13.47 21.31,-15.86 25.04,-56.97 -12.56,-74.45 -14.71,-6.84 -35.12,-9.57 -56.31,-9.57l-95.78 0 0 9.24z"/>
   <path class="fil4" d="M1595.23 93.39c5.61,0 15.38,1.4 19.19,3.46 5.05,2.7 8.62,7.81 8.62,15.02l0 158.04c0,11.89 -9.06,17.01 -18.81,18.21 -9.16,1.12 -9,-2.73 -9,9.5l185.38 0c0.39,-4.8 2.17,-11.37 3.17,-16.34 1.09,-5.41 2.15,-10.43 3.14,-16.37 1.39,-8.37 6.04,-26.76 6.04,-34.01 -13.36,0 -6.91,-0.13 -19.37,19.71 -13.48,21.48 -34.89,35.72 -64.05,35.72 -14.85,0 -33.98,2.89 -33.98,-13.34l0 -77.99c9.62,0 17.14,0.05 26.07,3.77 5.71,2.37 9.15,5.35 12.65,9.96 4.9,6.46 10.7,23.58 10.7,34.49l9.27 0 0 -104.68c0,-3.65 -2.01,-3.08 -6.18,-3.08 -4.2,0 -3.87,8.06 -7.06,17.59 -4.53,13.48 -8.55,23.17 -23.38,26.99 -7.72,1.99 -13.78,2.63 -23.11,2.63 4.16,-8.62 -1.2,-69.81 1.58,-79.51 2.52,-8.81 16.76,-6.67 27.34,-7.01 1.86,-0.06 0.18,-0.02 3.14,0.14 9.69,0.53 9.15,-0.16 20.58,2.1 17.37,3.44 28.19,10.14 35.21,26.5 2.59,6.02 6.29,16.59 6.9,23.9 4.59,0 9.27,1.37 9.27,-3.07l0 -58.5c0,-2.36 -0.72,-3.08 -3.09,-3.08l-180.23 0 0 9.24z"/>
   <path class="fil4" d="M872.27 93.39c16.59,0 27.82,5 27.82,21.55l0 150.86c0,8.8 -1.84,15.57 -7.85,18.86 -16.87,9.23 -19.97,-4.47 -19.97,12.95l185.38 0c0.42,-5.05 2.25,-11.75 3.35,-17.19 1.04,-5.22 2.35,-11.07 3.43,-17.11 1.15,-6.44 2.17,-11.87 3.26,-17.27 1.97,-9.77 5.25,-15.15 -2.83,-15.15 -7.9,0 -7.84,12.41 -20.92,28.42 -20.15,24.65 -39.95,27 -72.8,27 -13.29,0 -19.57,-4.17 -19.57,-17.44l0 -73.89c15.22,0 30.89,1.01 39.73,13.76 5.06,7.31 10.47,23.01 10.73,34.46l9.27 0 0 -104.68c0,-3.65 -2.01,-3.08 -6.19,-3.08 -6.22,0 -3.18,18.79 -15.27,35.06 -7.01,9.45 -21.96,12.14 -38.28,12.14l0 -70.81c0,-18.78 11.9,-15.39 32.95,-15.39 13.84,0 34.41,3 44.53,13.09 4.35,4.35 8.64,12.18 10.96,17.82 1.56,3.79 2.33,6.44 3.59,10.8 3.4,11.79 -1.08,10.63 10.96,10.63l0 -64.66 -182.29 0 0 9.24z"/>
   <path class="fil4" d="M1349.09 93.39c8.68,0.72 16.04,9.61 21.04,15.99 1.73,2.21 5.74,4.93 5.74,7.61l0 149.84c0,13.38 -6.31,19.29 -17.91,21.15 -9.82,1.57 -9.89,-3.1 -9.89,9.64l73.12 0c0,-15.66 -0.49,-5.2 -16.8,-11.99 -18.14,-7.54 -13.06,-28.23 -13.06,-56.78 0,-31.13 0,-62.26 0,-93.39 3.51,2.35 14.95,17 17.64,20.39l88 106.27c3.14,3.97 5.76,6.9 8.81,10.71 3.56,4.44 23.87,30.92 27.67,30.92l7.21 0c0,-27.27 -1.4,-181.9 1.12,-195.93 0.8,-4.44 1.19,-5.41 4.21,-8.12 4.05,-3.63 12.65,-5.78 19.4,-6.33l0 -9.24 -65.92 0c-4,0 -3.08,2.63 -3.08,9.24 8.2,0 18.75,2.72 22.95,6.89 6.46,6.45 5.88,16.15 5.88,22.87l0 89.29c0,3.92 -0.32,0.38 1.02,3.08 -3.2,-1.16 -1.04,-0.12 -3.93,-3.26 -1.5,-1.63 -2.03,-2.31 -3.28,-3.92 -18.16,-23.37 -42.65,-51.2 -61.93,-74.78 -4.84,-5.92 -8.94,-10.97 -13.95,-16.88 -2.06,-2.43 -25.61,-32.53 -28.13,-32.53l-65.91 0 0 9.24z"/>
   <path class="fil4" d="M1101.93 93.39c8.37,0.69 11.56,4.91 15.76,9.96 2.63,3.16 12.05,10.76 12.05,14.67l0 138.55c0,25.16 -5.11,31.81 -27.81,31.81l0 9.24 72.09 0c0,-15.91 -1.3,-5.32 -16.82,-11.97 -18.09,-7.75 -13.05,-31.02 -13.05,-56.8 0,-31.13 0,-62.26 0,-93.39 3.22,1.16 6.87,6.83 9.03,9.47l35.25 42.88c15.48,19.79 36.3,42.89 52.66,63.48 2.93,3.69 5.68,7.09 8.87,10.67l30.7 37.13c4.17,5.49 2.27,4.68 12.82,4.68l0 -181.65c0,-18.31 2.79,-26.91 24.71,-28.73l0 -9.24 -67.97 0 0 9.24c10.84,0 21.68,4.17 25.45,11.58 4.51,8.84 3.39,21.76 3.39,34.6 0,25.32 0,50.63 0,75.95 -5.82,-3.88 -51.09,-60.68 -55.38,-65.92l-40.99 -49.45c-2.13,-2.69 -11.23,-15.99 -14.85,-15.99l-65.91 0 0 9.24z"/>
   <path class="fil4" d="M645.71 512.1c0,2.39 2.75,5.13 5.15,5.13l1590.08 0c5.72,0 6.58,-11.29 -3.09,-11.29l-1584.93 0c-4.16,0 -7.21,2.24 -7.21,6.16z"/>
   <path class="fil4" d="M2057.63 108.78c0,14.63 -1.03,25.48 -1.03,40.02l10.3 0c0.32,-14.38 6.69,-29.95 16.72,-39.8 8.89,-8.74 25.64,-13.57 43.02,-13.57l0 173.44c0,5.64 -2.89,12.51 -6.57,15 -7.11,4.84 -14.48,4.49 -23.3,4.49l0 9.24 113.29 0c0,-13.61 -0.7,-7.73 -12.99,-9.63 -16.52,-2.53 -18.93,-11.17 -18.93,-33.48l0 -159.07c25.13,0 45.06,6.66 54.75,30.62 3.2,7.93 3.87,13.59 6.01,22.75l9.27 0 0 -64.66 -190.52 0 0 24.63z"/>
   <path class="fil4" d="M1827.98 132.38c0,15.76 -5.6,16.42 7.21,16.42 6.56,0 0.13,-21.9 18.24,-39.29 9.59,-9.22 26.2,-14.08 44.58,-14.08l0 164.21c0,41.91 -30.9,21.93 -30.9,31.81l0 6.16 113.28 0c0,-13.91 -1,-7.48 -13.88,-9.77 -5.44,-0.96 -9.87,-2.49 -12.67,-5.85 -4.88,-5.85 -5.38,-21.02 -5.38,-31.59l0 -154.96c24,0 39.07,5.39 49.87,21.11 7.46,10.87 8.03,20.04 10.89,32.26 13.26,0 10.3,5.85 10.3,-39 0,-9.98 -1.03,-15.83 -1.03,-25.65l-190.52 0 0 48.24z"/>
   <path class="fil0" d="M1.03 254.7l2.96 23.69c10.88,-1.73 23.44,18.78 45.43,-9.56 5.64,-7.28 8.71,-12.71 16.79,-17.1 8.36,-4.55 17.06,-6.61 28.05,-5.34l-56.14 -206.98c-3.41,3.57 -15.19,42.23 -16.6,46.66 -4.94,15.39 -9.39,33.44 -12.67,51 -3.5,18.73 -5.47,36.45 -7.65,56.01l-1.18 30.62 0 0.24c0.02,11.59 1.03,19.33 1.03,30.75z"/>
   <path class="fil1" d="M486.2 246.2c44.66,-1.89 37.55,29.28 62.81,36.93 8.97,2.72 17.3,-2.8 25.64,-5.04 1.66,1.5 1.18,-0.35 1.32,2.74 1.16,-5.83 1.87,-29.23 3.84,-32.01 0,-15.61 0.58,-46.71 -1.31,-60.74 -7.58,-56.39 -8.47,-68.98 -27.66,-126.38 -1.22,-3.63 -2.54,-7.81 -3.98,-11.43 -1.16,-2.92 -3.37,-8.18 -4.12,-11.08 -3.16,4.65 -24.76,89.52 -28.34,102.92 -9.25,34.66 -18.06,69.62 -28.19,104.09z"/>
   <path class="fil4" d="M1243.02 602.41c0.15,0.21 0.32,0.31 0.37,0.66l37.66 74.33c5.56,10.86 8.51,-0.92 10.66,-5.95l36.79 -84.43 0 87.23c-3.46,-1.65 -9.34,-1.02 -14.41,-1.02l0 6.16 53.54 0c-1.53,-5.75 -9.43,-8 -15.45,-5.14l0 -103.65 15.45 0 0 -6.15 -39.13 0c-0.73,3.12 -2.86,7.09 -4.11,10.26 -1.53,3.86 -2.82,6.7 -4.56,10.85l-28.4 63.05c-1.49,-6.38 -6.6,-15.21 -9.62,-21.21l-9.95 -20.87c-6.98,-13.79 -13.38,-28.49 -20.6,-42.07l-32.95 0 0 6.15 15.45 0 0 103.65c-2.47,-1.18 -6.52,-1.36 -10.41,-1.17 -5.68,0.29 -5.03,0.76 -5.03,6.31l39.13 0c-0.33,-3.9 -0.83,-4.55 -4.67,-5.64 -3.79,-1.08 -7.06,-0.77 -9.76,0.51l0 -71.83z"/>
   <path class="fil4" d="M1539.62 399.21c0,-11.5 -1.23,-37.53 1.02,-47.21 8.3,-3.97 19.27,-2.02 23.77,4.03 6.32,8.5 7.5,31.53 -1.92,38.27 -3.89,2.79 -16.32,4.91 -22.87,4.91zm-43.25 -50.29c9.26,0 14.41,1.97 14.41,11.29l0 81.08c0,17.31 -14.41,2.87 -14.41,16.42l57.67 0c0,-8.66 -2.39,-4.66 -8.57,-6.86 -4.34,-1.55 -5.48,-5.6 -5.83,-10.61 -0.68,-9.97 -0.02,-22.56 -0.02,-32.82 2.86,1.92 25.31,32.95 29.42,38.41 11.61,15.44 3.19,11.88 44.72,11.88l0 -5.14c-7.52,-0.62 -15,-14.13 -22.36,-23.89l-19.87 -26.4c13.58,-1.12 30.2,-14.58 26.86,-33.87 -1.58,-9.13 -6.45,-14.91 -13.44,-18.5 -6.97,-3.59 -15.13,-6.12 -25.78,-6.12l-62.81 0 0 5.13z"/>
   <path class="fil4" d="M764.15 570.6l15.45 0 0 102.62c-16.8,0 -15.45,-1.38 -15.45,6.16l54.58 0c-1.71,-7.32 -7.12,-6.16 -15.45,-6.16l0 -49.26 51.5 0 0 49.26c-16.8,0 -15.45,-1.38 -15.45,6.16l55.61 0c-1.74,-3.27 -1.32,-4.34 -5.71,-5.63 -3.74,-1.1 -7.07,-0.78 -9.74,0.49l0 -103.65c10.64,0 15.45,1.48 15.45,-3.08 0,-2.36 -0.72,-3.07 -3.1,-3.07l-52.51 0 0 6.15 15.45 0 0 46.18 -51.5 0 0 -46.18 15.45 0 0 -6.15 -54.58 0 0 6.15z"/>
   <path class="fil4" d="M1811.5 620.88l-12.36 0 0 -50.28c17.31,0 35.02,-2.93 35.02,26.68 0,13.72 -8.66,23.6 -22.66,23.6zm-52.52 -53.36c0,4.56 4.81,3.08 15.45,3.08l0 102.62c-16.8,0 -15.45,-1.38 -15.45,6.16l55.61 0c0,-6.19 0.26,-6.17 -6.09,-6.3 -4.08,-0.08 -6.7,-0.11 -9.36,1.16l0 -46.18 12.36 0 25.37 46.55c4.5,8.62 4.43,5.79 33.32,5.79 3.94,0 0.38,0.32 3.09,-1.02 -0.51,-6.2 -2.9,-5.14 -9.26,-5.14 -4.54,-8.53 -9.54,-16.07 -14.61,-24.43 -2.69,-4.44 -13.37,-21.15 -14.23,-24.83 38.67,-8.97 32,-60.54 -10.29,-60.54l-62.82 0c-2.37,0 -3.09,0.71 -3.09,3.07z"/>
   <path class="fil4" d="M1907.27 622.94c0,-69.03 44.97,-59.11 57.1,-41.51 10.98,15.97 17.09,93.85 -22.09,93.85 -29.7,0 -35.01,-26.18 -35.01,-52.34zm26.77 58.5c21.42,0 34.63,-2 51.26,-18.7 16.31,-16.39 19.15,-44.99 10.41,-66.36 -17.51,-42.8 -86.86,-47.37 -109.76,-1.86 -6.85,13.61 -8.19,32.97 -2.8,48.34 7.65,21.76 30.09,38.58 50.88,38.58z"/>
   <path class="fil4" d="M1336.74 358.16l0 85.19c0,14.56 -14.42,0.91 -14.42,14.37l98.86 0c2.73,-11.7 4.46,-24.16 7.21,-35.92l-6.18 0c-1.12,4.82 -5.38,11.87 -8.48,15.16 -11.01,11.7 -27.35,17.13 -42.81,13.37 -3.31,-0.81 -5.35,-2.48 -5.35,-6.98l0 -41.05c8.49,0 17.34,2.94 20.6,8.2 1.79,2.89 3.29,6.54 4.04,10.34 1.27,6.45 -0.35,7.99 6.26,8.13 2.92,-12.5 1.03,-42.02 1.03,-57.47 -10.14,-2.36 -4.3,4.34 -11.08,15.64 -4.48,7.46 -12,8.99 -20.85,8.99 0,-11.17 -1.21,-34.55 1.03,-44.13 7.75,-3.7 37.77,-5.94 45.49,15.23 3.37,9.25 0.76,10.94 7.04,11.46 2.22,-3.91 1.03,-28.69 1.03,-34.89l-97.83 0c0.17,7.95 2.03,3.86 8.42,5.98 3.59,1.19 5.99,3.93 5.99,8.39z"/>
   <path class="fil4" d="M848.59 363.29l0 79.03c0,4.16 -1.97,7.04 -5.06,8.29 -6.79,2.79 -9.36,-2.77 -9.36,7.1l39.13 0c0,-12.64 -11.64,-1.09 -15.02,-12.74 -1.72,-5.92 -1.46,-15.86 -1.46,-23.19 0.01,-16.76 0,-33.52 0,-50.29 3.81,2.54 6.59,6.92 9.71,10.86l60.55 73.07c2.88,3.4 2.4,5.35 6.98,5.35 4.7,0 3.13,-7.28 3.1,-12.31l-0.01 -80.06c-0.01,-13.92 -1.14,-18.38 12.36,-19.5l0 -5.13 -37.07 0c0.29,12.98 16.49,-4.72 16.51,25.62 0.01,14.38 -0.04,28.76 -0.04,43.15 -4.03,-1.45 -18.57,-21.16 -21.95,-25.34 -2.66,-3.29 -4.9,-5.7 -7.48,-8.97l-21.82 -26.48c-9.38,-11.48 -4.95,-7.98 -43.49,-7.98 0.19,8.71 14.42,9.19 14.42,19.5z"/>
   <path class="fil0" d="M125.24 531.68c9.3,11.4 19.75,21.42 29.73,31.24 4.93,4.84 10.48,10.66 15.86,15 4.13,3.32 12.64,12.46 16.67,14.31 -2.25,-13.66 -8.59,-32.53 -12.32,-46.4 -4.23,-15.73 -8.35,-31.33 -12.62,-46.91 -3.22,-11.73 -22.73,-88.47 -25.63,-92.35 -8.27,11.96 -15.71,40.19 -17.27,57.3 -1.13,12.46 -0.98,24.19 0.26,36.29 1.17,11.3 4.07,21.31 5.32,31.51z"/>
   <path class="fil1" d="M394 590.57c2.89,-1.19 13.96,-10.8 16.34,-13.38 10.33,-11.23 17.64,-15.14 31.14,-30.53 2.82,-3.22 4.21,-5.06 7.44,-7.96 2.82,-2.53 4.11,-5.98 7.36,-7.54l0.29 -8.35c4.19,-18.04 5.72,-41 3.91,-59.03 -1.54,-15.38 -9.56,-48.48 -17.79,-57.2 -1.62,12.59 -8.84,33.77 -12.32,46.91 -4.04,15.24 -8.23,30.65 -12.44,46.1 -2.78,10.21 -24.79,88.51 -23.94,90.97z"/>
   <path class="fil4" d="M1629.21 620.88c0,8.68 1.72,18.66 3.97,24.79 3.49,9.56 5.81,11.17 11.02,17.75 10.24,12.93 29.04,18.01 47.84,18.01 9.42,0 15.66,-2.89 22.64,-5.22 5.81,-1.94 15.53,3.17 23.7,3.17l0 -46.18 12.36 0 0 -7.18 -50.46 0c-4.39,0 -4.39,7.18 0,7.18l13.39 0 0 31.81c0,6.07 -13.49,8.77 -18.24,9.59 -28.73,4.9 -38.4,-23.52 -38.4,-46.53 0,-23.25 1.98,-58.49 31.93,-58.49 12.64,0 21.03,0.14 30.04,13.17 2.53,3.66 4.04,7.11 5.64,11.83 2.53,7.51 1.76,10.91 6.55,10.91 4.26,0 3.34,-3.96 2.72,-7.72 -1.12,-6.64 -0.66,-25.72 -0.66,-33.32 -15.04,1.24 -10.2,5.47 -23.92,1.25 -2.56,-0.79 -3.8,-1.09 -6.56,-1.68 -38.54,-8.2 -73.54,14.43 -73.54,56.86z"/>
   <path class="fil4" d="M2184.3 622.94l-9.27 0 0 -52.34c25.17,0 33.99,-0.73 33.99,29.76 0,15.62 -9.7,22.57 -24.71,22.57zm-49.43 -52.34l15.45 0 0 102.62c-16.8,0 -15.45,-1.38 -15.45,6.16l59.73 0c-2.07,-3.9 -2.47,-5.18 -7.41,-5.97 -4.07,-0.65 -9.6,-0.39 -12.17,0.83l0 -45.15 22.66 0c49.06,0 51.83,-64.65 3.09,-64.65l-65.91 0 0 6.15z"/>
   <path class="fil4" d="M650.86 348.92c17.25,0 13.39,11.2 13.39,27.71 0,24.36 -3.96,57.72 10,72.14 11.49,11.86 24.93,12.01 40.46,12.01 47.15,0 39.13,-54.28 39.13,-87.23 0,-16.83 -2.42,-20.63 7.34,-23.47 4.89,-1.43 5.63,-0.29 6.05,-5.26 -3.94,-2.21 -29.72,-1.03 -36.05,-1.03 -3.94,0 -0.37,-0.31 -3.09,1.03 0.79,9.52 16.47,-0.78 16.47,16.42l0 60.55c0,35.22 -38.21,35.54 -47.64,20.79 -3.4,-5.33 -4.89,-13.48 -4.89,-21.82l0 -57.47c0,-14.18 5.98,-14.37 16.48,-14.37l0 -5.13 -57.67 0 0 5.13z"/>
   <path class="fil4" d="M1490.19 592.15c0,9.97 3.29,16.9 10.03,22.85 16.49,14.54 51.76,17.82 51.76,41.81 0,25.77 -54.58,28.95 -54.58,-17.44l-8.24 0 0 41.05c6.02,-0.49 7.21,-1.95 7.21,-8.21 20.01,13.37 60.07,13.52 74.18,-6.12 7.42,-10.33 7.95,-26.37 -0.79,-36.23 -15.05,-16.97 -54.86,-22.72 -54.86,-43.86 0,-20.23 31.61,-23.84 44.13,-4.97 9.64,14.55 -2.99,17.28 12.51,17.28l0 -34.89c-5.47,0.12 -7.08,0.53 -7.21,6.17 -26.94,-14.21 -74.14,-7.88 -74.14,22.57z"/>
   <path class="fil4" d="M1683.8 374.58c0,35.62 52.09,37.23 57.49,55.65 4.41,15.07 -9.64,27.92 -28.55,21.22 -14.68,-5.21 -20.01,-17.61 -23.79,-33.77l-6.18 0 0 42.08c7.29,0 4.9,-0.25 6.02,-1.19 2.9,-2.45 -0.81,-3.94 6.35,-3.94 2.98,0 6.92,2.27 10.14,3.23 13.38,3.97 36.24,2.93 46.8,-8.06 18.07,-18.84 15.15,-44.97 -14.02,-59.49 -6.98,-3.48 -13.07,-6.25 -19.93,-9.9 -13.08,-6.95 -13.72,-9.4 -13.72,-20.19 0,-14.29 29,-23.99 44.31,7.16 1.22,2.49 1.24,2.75 2.35,5.87 1.59,4.45 0.08,4.42 6.89,4.42l0 -36.95 -6.18 0c-1.23,14.76 -22.15,-8.55 -48.41,3.06 -11.83,5.22 -19.55,18.18 -19.55,30.8z"/>
   <path class="fil4" d="M2168.85 415.63c0,23.93 3.14,34.27 -11.07,36.07 -4.38,0.56 -4.38,-0.63 -4.38,6.01l58.7 0c0,-7.67 -1.33,-5.24 -7.83,-6.58 -4.36,-0.88 -6.59,-3.02 -6.59,-7.79 0,-47.89 -4.01,-30.26 19.37,-68.95 3.49,-5.78 6.78,-10.71 10.16,-16.56 1.88,-3.26 2.97,-5.37 6.31,-7.06 5.71,-2.91 7.25,0.26 7.42,-6.98l-38.1 0 0 5.13c21.88,0 13.2,12 2.76,29.44 -2.83,4.73 -11.15,17.09 -12.03,20.85 -3.64,-2.66 -10.13,-16.65 -13.06,-21.88 -9.7,-17.3 -18.51,-27.27 -4.34,-28.3 5.49,-0.39 5.94,0.52 6.07,-5.24l-57.67 0c0.24,10.52 6.38,0.25 14.11,14.69l25.37 46.55c1.8,3.33 4.81,6.37 4.81,10.6z"/>
   <path class="fil4" d="M903.18 570.6l15.45 0 0 102.62c-16.8,0 -15.45,-1.38 -15.45,6.16l94.74 0 0 -35.92c-10.1,0 -4.54,3.13 -11.98,17.83 -8.04,15.9 -18.41,11.94 -43.62,11.94l0 -49.26 38.1 0 0 -7.19 -38.1 0 0 -46.18c20.83,0 35.61,-3.54 43.28,11.25 1.72,3.31 3.01,6.07 4.22,10.17 2.44,8.21 0.5,9.37 8.1,9.37l0 -36.94 -94.74 0 0 6.15z"/>
   <path class="fil4" d="M1374.85 570.6l15.45 0 0 102.62c-16.8,0 -15.45,-1.38 -15.45,6.16l94.74 0 0 -35.92c-6.89,0 -5.62,0.54 -8.1,8.35 -1.28,4.01 -2.05,5.85 -3.89,9.47 -1.66,3.26 -2.99,5.86 -5.48,7.87 -8.06,6.49 -22.48,4.07 -38.14,4.07l0 -49.26 38.11 0 0 -7.19 -38.11 0 0 -46.18c30.2,0 39.16,-4.06 47.51,21.42 3.33,10.13 0.66,9.37 8.1,9.37l0 -36.94 -94.74 0 0 6.15z"/>
   <path class="fil4" d="M1961.86 378.69l5.15 0c1.58,-18.98 11.17,-28.73 31.92,-28.73l0 85.18c0,28.18 -16.47,7.86 -16.47,22.58l60.76 0c0,-9.56 -2.43,-3.71 -10.63,-6.84 -4.1,-1.56 -5.85,-5.35 -5.85,-10.61l0 -90.31c10.78,0 17.46,2.21 22.96,7.91 10.3,10.67 5,20.82 11.03,20.82 2.37,0 3.09,-0.71 3.09,-3.07l0 -31.82 -101.95 0 0 34.89z"/>
   <path class="fil4" d="M656.02 599.33c0,5.96 -3.9,6.15 6.17,6.15 0.32,-3.7 5.72,-19.39 7.19,-22.59 5.58,-12.07 13.17,-12.3 23.7,-12.3l0 103.65c-1.23,-0.59 -17.51,-3.94 -17.51,2.06l0 3.08 60.76 0c-3.97,-7.5 -7.12,-6.16 -18.53,-6.16l0 -102.62c18.13,0 22.83,3.71 28.62,24.84 1.61,5.89 1.43,10.04 6.39,10.04 4.98,0 3.18,-11.97 3.12,-21.59 -0.08,-9.9 1.31,-19.45 -3.12,-19.45l-96.8 0 0 34.89z"/>
   <path class="fil4" d="M1048.38 577.78l0 27.71c10.53,0 6,-2.23 13.51,-21.43 5.32,-13.62 13.95,-13.45 24.6,-13.45l0 103.65c-0.95,-0.45 -18.53,-4.06 -18.53,2.06l0 3.08 60.75 0c-2.05,-7.64 -9.16,-6.16 -17.51,-6.16l0 -102.62 6.18 0c23.64,0 19.77,34.89 27.81,34.89l3.09 0 0 -41.04 -98.86 0c0,5.85 -1.03,7.09 -1.03,13.34z"/>
   <path class="fil4" d="M1142.1 348.92c12.17,0.28 13.12,10.39 18.88,23.26 4.5,10.02 7.97,19.63 12.7,29.43 2.43,5.03 3.87,9.23 6.17,14.38l18.9 44.8 6.17 0 40.18 -103.64c2.54,-4.55 5.3,-8.06 12.35,-8.22l0 -5.13 -36.05 0 0 5.13c5.1,0 9.12,0.01 13.38,2.06 2.24,8.4 -0.45,10.2 -3.96,19.65 -2.02,5.44 -16.36,45.62 -19.72,48.07l-13.04 -31.13c-4.17,-8.88 -12.71,-26.65 -12.71,-34.55 0,-3.56 3.94,-3.84 7.3,-4.01 6.16,-0.32 6.98,1.36 7.12,-5.22l-57.67 0 0 5.13z"/>
   <path class="fil4" d="M2008.2 570.6l15.45 0 0 70.82c0,24.05 18.16,40.02 42.23,40.02 16.32,0 29.61,0.09 40.35,-14.19 6.18,-8.23 8.05,-21.92 8.05,-36.1l0 -60.55c16.8,0 15.45,1.37 15.45,-6.15l-39.13 0 0 6.15 15.45 0 0 69.79c0,40.57 -45.37,45.76 -55.51,17.34 -4.49,-12.58 -3.2,-70.35 -3.2,-87.13l15.45 0 0 -6.15 -54.58 0 0 6.15z"/>
   <path class="fil4" d="M1850.63 360.21l0 82.11c0,13.55 -15.45,5.99 -15.45,12.31l0 3.08 59.73 0c0,-8.98 -1.08,-4.52 -8.8,-6.58 -4.24,-1.13 -6.64,-4.02 -6.64,-8.82l0 -82.11c0,-10.9 7.35,-11.29 15.45,-11.29l0 -5.13 -59.73 0c0.18,7.87 2.27,3.89 9.21,6.22 4.35,1.45 6.24,4.32 6.24,10.2z"/>
   <path class="fil4" d="M1017.49 348.92c8.65,0 15.45,0.72 15.45,12.31l0 76.97c0,22.43 -15.45,5.62 -15.45,19.51l59.73 0c0,-8.89 -0.96,-4.55 -8.79,-6.58 -4.14,-1.09 -6.65,-2.99 -6.65,-7.79l0 -85.19c0,-9.36 9.13,-9.23 15.45,-9.23l0 -5.13 -59.73 0 0 5.13z"/>
   <path class="fil4" d="M1156.51 570.6l15.45 0 0 102.62c-16.8,0 -15.45,-1.38 -15.45,6.16l55.61 0c-1.54,-5.75 -9.43,-8 -15.45,-5.14l0 -103.65 15.45 0 0 -6.15 -55.61 0 0 6.15z"/>
  </g>
 </g>
</svg>
