<?xml version="1.0" encoding="UTF-8" standalone="no"?>
<svg
   xmlns:dc="http://purl.org/dc/elements/1.1/"
   xmlns:cc="http://creativecommons.org/ns#"
   xmlns:rdf="http://www.w3.org/1999/02/22-rdf-syntax-ns#"
   xmlns:svg="http://www.w3.org/2000/svg"
   xmlns="http://www.w3.org/2000/svg"
   viewBox="0 0 544 180"
   height="180"
   width="544"
   xml:space="preserve"
   id="svg2"
   version="1.1"><metadata
     id="metadata8"><rdf:RDF><cc:Work
         rdf:about=""><dc:format>image/svg+xml</dc:format><dc:type
           rdf:resource="http://purl.org/dc/dcmitype/StillImage" /></cc:Work></rdf:RDF></metadata><defs
     id="defs6" /><g
     transform="matrix(1.3333333,0,0,-1.3333333,0,180)"
     id="g10"><g
       transform="scale(0.1)"
       id="g12"><path
         id="path14"
         style="fill:#ffffff;fill-opacity:1;fill-rule:evenodd;stroke:none"
         d="m 2030.85,695.098 c -4.83,3.011 -8.86,8.422 -12.84,12.273 -2.28,2.211 -4.28,3.703 -6.43,6.285 l -15.69,15.703 c -3.73,3.485 -11.76,12.512 -13.37,17.153 -7.76,22.351 12.11,42.758 31.69,38.91 7.35,-1.442 11.24,-5.059 16.64,-7.934 2.59,1.141 4.89,3.344 7.67,5.004 12.5,7.481 33.84,2.078 40.49,-15.394 7.01,-18.403 -4.66,-30.325 -16.76,-41.407 l -18.87,-18.441 c -1.17,-1.133 -11.19,-11.594 -12.53,-12.152 z m -857.76,647.172 h 31.03 c 1.77,-0.1 1.71,-0.38 3.71,-0.44 3.08,-0.09 6.27,0.07 9.36,0.03 2.19,-0.02 2.33,-0.34 4.22,-0.44 l 12.72,-0.43 c 5.67,0.03 11.58,-0.79 17.4,-0.83 2.2,-0.01 2.33,-0.34 4.22,-0.43 1.44,-0.07 2.68,0.08 4.13,-0.12 5.04,-0.69 11.11,-0.64 16.59,-1.22 l 16.63,-1.6 c 25.11,-1.93 55.39,-5.94 80.23,-10.09 5.34,-0.89 10.62,-1.77 15.62,-2.61 25.3,-4.24 50.09,-9.68 75.18,-15.14 19.39,-4.22 38.56,-9.16 57.57,-14.5 21.25,-5.97 42.41,-11.52 63.35,-18.49 29.29,-9.76 58.61,-18.78 87.38,-30.07 4.43,-1.73 8.73,-3.23 12.91,-4.9 4.45,-1.79 8.73,-3.41 13.09,-5.15 4.36,-1.75 8.54,-3.42 13.02,-5.21 9.86,-3.95 22.36,-8.8 31.92,-13.45 l 79.71,-37.74 c 1.98,-0.99 3.96,-1.98 5.94,-2.97 l 8.91,-4.65 c 1.14,-0.6 1.81,-1.12 2.96,-1.71 1.03,-0.54 1.99,-0.93 3.11,-1.56 1.15,-0.65 1.4,-0.91 2.68,-1.55 1.27,-0.64 1.9,-0.95 3.03,-1.64 l 6.02,-3.3 c 1.1,-0.57 1.53,-0.94 2.69,-1.56 l 72.87,-44.58 c 10.32,-6.63 22.4,-14.62 32.26,-22.01 l 10.6,-7.64 c 1,-0.75 1.73,-1.18 2.73,-1.93 2.97,-2.21 4.95,-4.58 8.91,-4.02 l 24.71,2.44 c 2.19,0.05 2.37,0.33 4.23,0.43 1.37,0.07 2.88,-0.08 4.25,-0.01 1.89,0.11 2.02,0.43 4.22,0.45 1.43,0.01 2.73,-0.1 4.14,0.09 5.45,0.76 11.4,-0.11 17.5,-0.11 5.74,0 22.36,0.57 27.38,-0.18 2.6,-0.38 5.53,-0.69 8.23,-0.67 10.04,0.06 22.76,-2 32.68,-3.37 10.5,-1.44 20.49,-3.28 30.61,-5.43 2.64,-0.56 4.89,-1.14 7.19,-1.71 16.74,-4.19 32.81,-8.75 48.55,-15.05 l 12.6,-5.22 c 10.46,-4.34 20.38,-9.7 30.21,-15.15 l 24.98,-15.72 30.7,-23.583 c 0.87,-0.668 1.38,-1.101 2.37,-1.871 l 7.29,-6.707 c 0.92,-0.929 1.21,-1.258 2.22,-2.019 2.8,-2.137 6.32,-6.114 9.01,-8.801 0.87,-0.879 1.47,-1.449 2.34,-2.32 1.04,-1.055 1.19,-1.512 2.11,-2.551 5.05,-5.723 7.57,-7.86 12.4,-14.313 l 15.75,-20.718 c 1.42,-1.887 2.57,-3.356 3.93,-5.403 l 3.47,-5.433 c 3.61,-5.508 7.11,-11.149 10.06,-17.075 5,-10.054 10.51,-20 14.33,-30.621 1.49,-4.136 3.63,-8.808 4.61,-13.191 -1.48,-1.656 -4.64,-2.953 -6.66,-4.359 l -12.37,-9.258 -13.53,-13.61 c -0.8,-1.019 -1.52,-1.843 -2.29,-2.8 -3.24,-4.024 -6.01,-7.629 -8.91,-12.282 -26,-41.632 -25.8,-91.996 -0.62,-133.965 4.84,-8.078 12.32,-17.824 19.1,-24.148 6.42,-5.984 10.13,-9.574 17.74,-14.477 1.59,-1.027 5.37,-2.699 6.27,-4.328 l -14.43,-33.906 c -0.67,-1.144 -1.12,-1.855 -1.82,-3.266 -3.03,-6.125 -8.15,-14.113 -11.71,-20.097 -3.68,-6.203 -18.13,-26.512 -22.17,-30.832 l -9.96,-11.235 c -8.68,-8.886 -7.07,-9.418 -18.65,-19.093 l -11.04,-10.157 c -1.13,-1.125 -1.62,-1.363 -2.75,-2.347 l -24.07,-18.328 c -1.13,-0.805 -1.91,-1.418 -3.22,-2.289 l -19.33,-12.473 c -4.1,-2.484 -21.53,-12.125 -23.94,-12.801 -0.45,8.227 -0.33,16.754 -0.61,25.024 -0.28,8.148 -0.66,16.437 -0.78,24.589 -0.21,13.965 -0.15,21.329 4.05,34.079 2.29,6.945 0.68,10.402 3.94,10.058 13.78,-1.457 8.44,-5.875 23.22,4.328 9.01,6.219 14.75,5.18 26.66,7.301 -0.71,3.164 -11.48,10.621 -17.03,17.773 -1.36,1.75 -2.71,3.075 -4.06,4.844 -1.26,1.668 -2.41,3.129 -3.6,4.879 -2.42,3.574 -4.62,6.809 -6.89,10.492 -5.97,9.7 -20.09,35.696 -18.45,50.594 3.14,2.938 25.57,5.137 31.78,7.242 10.65,3.606 13.59,12.211 12.89,25.653 -0.62,11.644 -2.42,23.66 -3.97,34.996 -3.39,24.84 -5.81,46.086 -6.17,71.461 -0.12,8.547 -0.86,28.617 -1.97,36.562 -2.05,14.625 -9.03,18.926 -16.47,27.219 l -4.66,5.098 c -0.86,0.863 -1.36,1.605 -2.18,2.503 -1.61,1.747 -3.06,2.762 -4.98,4.762 -5.53,5.754 -8.48,8.289 -13.03,15.809 -10.53,17.363 -6.08,9.406 -18.51,20.504 -18.55,16.566 7.27,53.367 -2.64,80.047 -1.76,4.71 -4.59,8.14 -7.9,11.61 -3.67,3.85 -5.68,5.74 -8.61,10.89 -2.74,4.82 -4.42,7.54 -10.22,9.28 -5.38,1.62 -11.76,1.46 -17.81,1.32 -12.85,-0.3 -20.02,-3.49 -31.3,-7.33 -2.81,-0.95 -4.09,-1.94 -6.7,-3.03 -7.02,-2.94 -13.62,-6.24 -21.35,-7.74 0.15,4.67 1.2,4.65 3.97,6.41 -0.73,0.57 -1.37,0.57 -2.44,-0.01 -7.09,-3.87 -4.26,-8.36 -13.84,-5.86 -1.69,-1.9 -4.36,-7.86 -5.24,-10.74 -1.85,-6.039 -0.73,-8.48 -1.24,-14.066 -1.83,0.113 -3.09,0.449 -4.72,-0.313 -0.59,-3.976 1.5,-8 3.21,-11.156 2.41,-4.457 -0.32,-9.312 0.08,-12.992 4.45,3.34 1.82,7.398 9.18,7.398 3.19,0 13.63,0.747 15.8,0.122 0.35,-5.227 0.5,-8.661 1.65,-13.606 0.94,-4.023 2.3,-8.078 3.19,-12.078 2.41,-10.848 -4.98,-18.926 -3.85,-24.625 12.8,-2.52 9.8,0.57 14.61,-7.438 2.58,-4.308 5.56,-9.367 7.84,-13.789 8.88,-17.25 14.21,-1.175 28.09,-0.355 7.04,-14.367 11.35,-14.32 6.29,-21.324 -7.03,-9.746 -8.03,-10.77 -8.34,-24.352 -0.12,-5.656 -2.55,-12.398 -4.41,-17.18 -8.08,-20.828 -15.47,-43.425 -20.85,-66.515 -3.68,-15.813 -3.61,-50.27 -7.71,-57.988 -1.25,-2.344 -4.54,-2.598 -7.56,-3.45 -2.83,-0.797 -5.25,-1.793 -8.02,-2.597 -6.77,-1.985 -12.28,-1.262 -19.7,-0.887 -8.92,0.445 -10.96,-0.691 -17.17,-4.231 -4.66,-2.66 -8.96,-5.367 -13.88,-7.753 l -14.53,-7.032 c 1.02,-3.789 3.11,-5.418 3.9,-8.324 -2.12,-1.492 -12.08,-4.266 -15.57,-3.984 -4.89,0.398 -9.3,5.074 -10.98,8.218 1.43,1.2 3.61,1.309 5.57,1.325 2.06,-3.739 3.18,-6.004 8.11,-6.141 -0.09,6.668 -1.11,8.527 -5.54,11.293 -12.8,8.012 -24.85,6.637 -38.19,1.496 -12.83,-4.945 -33.88,-15.316 -49.59,-14.656 -0.03,5.508 2.08,19.027 3.29,24.512 4.37,19.8 24.52,26.648 0.36,46.132 -2.4,1.938 -5.33,3.778 -7.97,5.594 -10.99,7.504 -19.14,17.731 -27.81,27.742 -11.55,13.332 -4.8,28.098 1.65,41.797 l 24.87,-2.199 c 0.69,1.156 1.03,7.637 1.57,9.969 1.34,5.808 3.34,11.136 6.18,16.277 1.43,2.582 3.65,4.949 1.94,7.231 -3.04,4.074 -7.82,5.859 -9.25,13.289 -0.97,5.082 0.09,9.246 2.76,13.277 0.95,1.426 1,2.125 3.27,2.496 l 0.87,-3.746 c 4.41,2.625 7.18,9.184 7.4,14.25 0.42,10.187 -10.77,21.992 -20.19,24.203 -12.02,2.824 -10.08,-0.375 -21.53,6.434 -2.68,1.59 -9.5,3.636 -12.53,4.019 -6.81,0.856 -14.13,-0.156 -19.83,-2.062 -9.64,-3.231 -19.4,-10.668 -25.44,-18.594 -7.78,1.039 -10.91,5.586 -17.26,7.727 -15.03,5.066 -34.05,-17.309 -38.28,-34.516 -5.23,-21.258 9.16,-51.899 3.03,-65.352 -3.1,-6.804 -7.77,-7.097 -15.86,-8.742 1.35,-1.605 4.6,-1.914 6.54,-2.539 l 1.97,-0.934 c -2.02,-2.429 -8.62,-4.683 -13.04,-4.171 -9.97,1.168 -13.66,15.437 -7.1,21.406 1.53,1.394 3.67,2.269 5.74,3.164 0.86,0.371 5.1,1.539 5.42,2.699 0.04,0.137 0.16,0.145 0.24,0.223 l -1.24,0.566 c -1.44,0.449 -3.28,0.348 -4.82,0.321 -19.18,-0.344 -14.81,-17.524 -14.1,-29.18 -1.83,0.66 -4.23,2.289 -5.18,3.476 -1.24,1.551 -1.74,4.442 -3.18,5.641 -0.87,-1.156 -1.14,-2.543 -1.65,-3.773 -1.79,-4.266 -4.91,-6.086 -7.05,-9.481 -3.65,-5.805 0.11,-12.051 0.19,-18.465 0.1,-7.773 -8.36,-16.168 -7.32,-35.777 2.35,1.941 4.52,7.758 5.7,10.277 l 5.2,9.977 c -0.26,-9.445 -11.09,-18.672 2.9,-41.629 5.25,-8.609 10.58,-15.328 18.14,-21.289 2.11,-1.66 5.21,-3.981 8.15,-5.09 -1.54,3.395 -5.81,8.145 -7.96,11.645 -5.48,8.941 -6.43,22.058 -3.66,32.132 1.08,3.942 4.33,10.766 7.23,11.911 -1.35,-7.899 -3.61,-12.555 -3.42,-21.766 0.53,-24.606 28.24,-39.867 28.5,-46.215 0.09,-2.289 -6.25,-9.238 -14.5,-7.699 -6.27,1.176 -10.44,5.047 -14.78,7.824 0.06,-5.305 3.32,-12.535 5.78,-15.578 2.86,-3.555 7.78,-6.406 13.75,-7.004 16.73,-1.672 18.4,8.016 25.65,15.465 2.94,-1.414 11.47,-7.801 18.21,-4.039 -4.72,0.508 -11.05,2.285 -12.77,5.23 -1.41,2.391 -4.04,9.742 -4.38,13.098 l 11.46,-0.566 c -0.43,0.375 0.01,0.074 -0.77,0.566 l -4.64,2.141 c -5.47,2.46 -8.97,6.707 -9.45,13.546 6.85,-1.597 11.26,-11.148 30.37,-7.113 l -1.37,1.66 c -2.93,2.035 -7.85,0.153 -15.56,5.231 -4.66,3.078 -8.22,7.742 -9.91,14.277 -3.83,14.879 8.66,32.418 12,33.613 -0.69,-11.746 -8.82,-15.136 -0.78,-30.453 2.09,-3.984 5.33,-7.98 8.84,-10.25 3.59,-2.328 9.87,-4.281 15.16,-3.476 l -1.07,1 c -4.17,3.035 -13.86,5.55 -12.54,17.789 4.97,-4.981 1.03,-7.883 11.31,-9.203 -3.44,7.703 -6.75,4.351 -6.76,15.386 3.2,-0.312 5.27,0.391 7.45,1.743 1.48,0.921 3.59,3.05 4.37,4.492 l -9.95,0.593 c 0.6,1.942 15.27,12.137 17.63,12.575 0.95,-1.715 1.31,-6.789 1.83,-9.227 0.64,-3.058 1.28,-5.66 2.09,-8.515 6.02,-21.313 29.3,-61.36 20.5,-81.75 -2.15,-4.997 -6.38,-7.836 -10.62,-10.602 -12.86,-8.359 -23.5,-18.656 -35.38,-28.227 -2.09,-1.679 -3.87,-3.222 -5.78,-4.832 -2.03,-1.714 -3.83,-3.277 -5.68,-4.914 -11.29,-9.945 -23.17,-19.05 -34.59,-28.996 -1.79,-1.554 -3.72,-3.215 -5.74,-4.84 -2,-1.601 -3.75,-3.148 -5.81,-4.812 -1.99,-1.613 -3.97,-3.223 -5.8,-4.817 -1.57,-1.375 -4.23,-3.976 -5.76,-4.824 -2.81,1.867 -5.84,5.785 -8.15,8.379 -7.55,8.461 -14.89,17.434 -20.7,27.211 -6.44,10.832 -13.14,21.387 -18.49,32.82 l -7.54,17.907 c -9.03,22.586 -15.03,46.832 -18.45,71.445 -0.53,3.816 -0.89,7.309 -1.42,11.301 -0.18,1.367 -0.65,4.035 -0.73,5.633 -0.32,6.386 -0.85,11.953 -0.84,18.664 0,4.531 -0.43,7.597 -0.43,12.293 l 0.44,12.281 c 0.16,5.64 -0.21,13.449 0.59,18.922 l 2.02,17.062 c 1.77,14.442 4.17,28.692 8.25,42.629 2.87,9.809 5.72,19.672 9.48,29.113 5.38,13.528 15.25,35.243 23.23,47.153 l 10.27,15.597 22.59,28.286 c 2.9,3.445 6.36,6.437 9.15,9.941 1.83,2.301 4.49,4.156 6.53,6.195 l 13.36,12.496 32.57,25.103 c 1.42,0.97 2.39,1.58 3.82,2.53 1.44,0.97 2.36,1.63 3.86,2.51 8.14,4.81 15.89,10.06 24.44,14.14 l 8.62,4.1 c 1.57,0.73 2.68,1.34 4.24,2.13 1.58,0.79 2.94,1.25 4.39,1.96 1.41,0.7 2.82,1.43 4.23,2.13 6.67,3.37 31.5,13.55 36.89,14 -0.81,1.11 -3.1,2.25 -4.53,3.1 -1.74,1.03 -3.12,1.87 -4.78,2.86 -15.74,9.41 -45.12,26.79 -61.63,35.03 -1.84,0.92 -2.98,1.47 -4.71,2.51 l -49.57,25.05 c -3.43,1.71 -6.74,3.15 -10.04,4.8 l -10.05,4.79 c -3.6,1.53 -6.67,3.01 -10.15,4.69 l -15.83,7.07 c -18.89,8.49 -37.97,16.54 -57.19,24.22 -10.55,4.22 -21.25,8.67 -32.02,12.5 l -65.62,23.43 c -1.97,0.68 -3.84,1.14 -5.83,1.8 -16.68,5.62 -34.09,11.26 -51.03,15.97 -15.44,4.29 -30.8,9.12 -46.37,12.98 -4.18,1.04 -7.57,2 -11.79,3.05 -24.01,6.01 -48.11,11.93 -72.3,16.75 -29.25,5.82 -71.45,14.03 -101.77,17.38 -14.19,1.57 -32.36,4.53 -46.68,5.47 -2.14,0.14 -4.39,0.26 -6.66,0.55 -8.55,1.12 -18.5,1.4 -27.31,2.37 l -7.14,0.5 c -1.25,0.03 -2.52,-0.09 -3.76,0.05 -1.27,0.14 -1.26,0.33 -3.02,0.37 l -21.65,0.82 c -6.01,0.07 -15.01,0.87 -21.61,0.86 -28.6,-0.01 -59.34,0.11 -86.94,-2.1 -1.23,-0.09 -2.55,0.06 -3.78,-0.04 -1.59,-0.12 -1.46,-0.35 -3.41,-0.41 -6.79,-0.16 -13.59,-1.28 -20.35,-1.69 -4.31,-0.25 -9.02,-0.82 -13.45,-1.39 -4.17,-0.54 -8.8,-1.02 -13.19,-1.65 -32.565,-4.67 -67.8,-10.49 -99.35,-19.8 l -22.844,-6.84 c -10.461,-2.85 -22.914,-7.54 -32.953,-11.57 -3.688,-1.48 -6.903,-2.77 -10.598,-4.23 -2.004,-0.8 -3.34,-1.43 -5.39,-2.25 l -15.329,-6.72 c -1.937,-0.8 -3.257,-1.62 -5.117,-2.52 l -24.457,-12.43 c -14.426,-7.74 -28.179,-16.53 -41.84,-25.58 -11.015,-7.29 -21.23,-15.79 -31.621,-23.92 -0.941,-0.74 -1.148,-1.1 -2,-1.82 l -5.91,-5.11 c -0.926,-0.87 -1.211,-0.89 -2.125,-1.7 -2.582,-2.29 -4.922,-4.99 -7.703,-7.13 -3.824,-2.95 -25.359,-24.82 -31.02,-32.16 l -27.558,-35.62 c -4.199,-5.76 -7.848,-11.99 -11.715,-17.97 -5.883,-9.11 -11.348,-18.61 -16.172,-28.35 -9.195,-18.57 -18.383,-37.16 -24.926,-56.909 l -5.609,-16.437 c -8.281,-25.32 -15.074,-51.238 -19.418,-77.695 -0.312,-1.926 -0.617,-4 -1.031,-6.176 -3.571,-18.742 -6.926,-47.836 -7.809,-66.395 l -0.488,-7.148 c -0.231,-2.121 -0.176,-4.34 -0.383,-6.82 l -0.836,-14.008 c 0.024,-5.391 -0.418,-9.375 -0.414,-14.426 v -282.41 c 0,-4.246 0.461,-81.922 -0.601,-88.867 -0.321,-2.079 -0.415,-5.211 -0.606,-7.028 -0.269,-2.515 -0.324,-4.242 -0.519,-6.683 -1,-12.328 -4.114,-25.719 -7.086,-37.438 -1.985,-7.812 -4.489,-14.926 -7.422,-22.269 -0.774,-1.946 -1.426,-3.438 -2.274,-5.352 -0.828,-1.848 -1.539,-3.316 -2.261,-4.949 -0.86,-1.914 -1.45,-3.293 -2.407,-5.227 l -7.953,-14.093 -17.734,-23.825 c -0.754,-0.843 -0.738,-1.05 -1.488,-1.902 l -5.512,-5.934 c -1.75,-1.996 -3.84,-3.414 -5.723,-5.304 -0.703,-0.707 -1.183,-1.258 -1.91,-1.91 l -3.859,-3.348 c -9.094,-7.285 -18.356,-13.918 -28.387,-19.949 -0.902,-0.547 -1.488,-0.797 -2.449,-1.368 l -14.59,-7.46 -29.313,-11.391 C 393.16,207.895 354.762,204.16 320.391,204.16 c -11.278,0 -31.403,0.844 -42.157,2.363 -4.703,0.661 -8.66,0.973 -13.265,1.575 -28.242,3.718 -61.008,12.281 -86.481,25.035 -1.742,0.875 -3.179,1.597 -4.804,2.406 -17.293,8.649 -29.993,17.582 -45.008,29.617 -5.418,4.34 -10.164,9.696 -15.098,14.586 -0.734,0.731 -1.238,1.164 -1.863,1.953 -0.77,0.965 -0.793,1.129 -1.738,2.078 l -6.743,8.106 c -1.093,1.473 -2.023,2.484 -3.152,4.051 l -11.707,17.972 c -5.7695,9.571 -9.9102,20.055 -14.0312,30.489 -2.9415,7.429 -5.0313,15.324 -6.629,23.058 -4.125,19.949 -5.121,33.567 -5.121,54.664 v 297.25 c 0,19.02 -0.5508,32.235 -15.8047,43.559 -20.8828,15.504 -36.6953,3.949 -40.87113,9.59 -1.20703,1.633 -0.99219,3.554 -0.89844,6.125 l 1.17969,1.367 c 6.37498,0 11.30858,0.453 17.81248,0.418 3.5039,-0.016 5.3008,0.437 8.8985,0.426 2.957,-0.008 5.9726,-0.051 8.9218,-0.016 2.1914,0.023 2.336,0.34 4.2188,0.441 6.0078,0.321 12.1992,-0.617 18.1758,0.059 9.0742,1.023 21.7578,0.367 31.0156,0.363 6.0708,0 11.3558,0.426 17.8088,0.426 h 27.137 c 3.429,0.02 5.046,-0.445 8.476,-0.426 h 27.563 c 3.484,0.012 5.175,-0.445 8.472,-0.429 l 35.184,-0.856 c 6.25,-0.18 11.937,-0.301 17.863,-0.371 3.25,-0.043 3.93,-2.269 3.125,-5.301 -1.66,-6.195 -8.785,-3.445 -13.336,-3.215 -3.101,0.157 -6.008,-0.054 -8.508,-0.402 -6.031,-0.832 -11.48,-2.754 -16.648,-5.828 -1.133,-0.672 -1.879,-1.152 -2.832,-1.832 -1.996,-1.414 -3.008,-2.367 -4.77,-4.137 -12.214,-12.226 -11.339,-23.824 -11.339,-42.929 l 0.441,-306.981 c 1.305,-15.816 3.332,-32.629 7.098,-47.18 2.984,-11.527 6.734,-23.254 11.957,-33.839 0.976,-1.981 1.988,-3.954 2.976,-5.93 l 11.934,-19.863 c 3.789,-5.118 7.41,-10.325 11.918,-14.797 1.09,-1.078 1.211,-1.418 2.133,-2.528 5.152,-6.164 18.078,-16.074 24.554,-20.394 2.008,-1.336 3.578,-2.332 5.715,-3.613 27.25,-16.278 54.723,-21.485 86.633,-21.493 l 8.484,0.426 c 30.293,1.492 53.606,8.902 76.883,22.762 1.141,0.68 1.856,1.219 2.848,1.812 0.98,0.59 1.625,0.961 2.613,1.625 l 5.422,3.907 c 5.043,3.793 10.078,7.734 14.523,12.195 6.188,6.195 11.719,12.508 16.977,19.484 10.625,14.086 15.539,26.176 21.68,41.922 0.91,2.328 1.39,4.289 2.207,6.703 10.648,31.492 9.066,66.11 9.066,99.489 0,28.281 -0.574,320.175 0.176,325.054 l 0.656,26.485 c 0.063,2.093 0.395,2.117 0.453,4.211 l 0.82,17.41 c 0.016,2.074 0.29,2.211 0.415,3.828 0.253,3.234 0.222,5.648 0.468,8.859 3.285,42.922 10.75,90.098 22.602,130.899 l 4.094,14.144 c 4.656,17.051 12.523,36.718 19.257,52.828 8.641,20.68 19.313,40.34 30.75,59.57 5.543,9.33 11.594,18.56 18.133,27.23 5.156,6.85 9.989,13.97 15.699,20.34 1.5,1.68 2.469,3.24 4.036,4.88 0.996,1.04 1.164,1.52 2.113,2.54 l 13.144,14.42 c 4.856,5.5 10.274,10.67 15.473,15.91 1.082,1.08 1.422,1.2 2.535,2.13 l 6.813,6.33 c 4.718,4.71 11.797,10.67 17.047,14.75 l 20.429,15.62 c 0.93,0.69 1.653,1.28 2.653,2.01 8.722,6.31 17.929,12.16 27.043,17.9 l 53.058,28.78 c 2.125,1.07 3.918,1.79 6.071,2.83 8.265,4 16.98,7.33 25.468,11 l 9.754,3.82 c 1.176,0.47 1.891,0.78 3.039,1.2 39.625,14.26 70.594,23.69 111.742,32.85 15.149,3.36 30.118,6.29 45.43,8.83 31.949,5.31 64.089,9.62 96.459,12.1 5.37,0.41 11.17,0.43 16.63,1.18 l 43.56,1.8 c 2.97,-0.02 4.82,0.4 7.99,0.43 h 0.48 1.14 12.25 4.85 z m 852.83,-541.758 c -1.35,3.789 -5.27,16.218 -3.54,19.758 2.1,4.3 10.18,7.589 14.07,-1.2 4.68,-0.261 6.89,-0.422 8.66,-3.609 1.81,-3.262 1.31,-6.906 -1.11,-9.184 -2.41,-2.269 -14.39,-5.308 -18.08,-5.765 z m 38,37.347 c 1.28,0.817 4.02,5.332 9.74,3.625 3.25,-0.964 6.03,-3.867 5.96,-8.05 -0.07,-3.508 -8.94,-17.5 -9.76,-18.223 -2.09,0.687 -6.59,3.641 -8.99,4.988 -2.66,1.496 -6.29,3.531 -7.92,5.645 -2.38,3.074 -1.67,7.75 0.64,10.277 2.75,3.008 5.77,2.82 10.33,1.738 z m -71.88,15.289 c 6.67,12.739 28.39,8.024 27.8,-8.273 -0.21,-5.57 -5.72,-13.297 -8.13,-17.328 l -9.36,-15.59 c -2.77,1.078 -5.63,2.992 -8.07,4.414 -5.76,3.352 -20.15,10.875 -23,15.152 -6.25,9.36 0.06,22.145 10.11,23.301 4.61,0.528 6.73,-1.164 10.65,-1.676 z m 61.99,9.411 c -1.24,4.726 -2.65,9.773 -4.03,14.613 -1.3,4.625 -3.3,10.496 -1.18,15.047 1.72,3.683 6.13,6.863 11.57,6.328 6.7,-0.656 7.8,-5.781 9.89,-8.219 3.85,-0.098 9.28,0.637 12.74,-5.57 2.71,-4.86 1.29,-10.371 -1.76,-13.547 -2.71,-2.828 -8.07,-3.824 -12.82,-5 -4.64,-1.16 -9.77,-2.875 -14.41,-3.652" /><path
         id="path16"
         style="fill:#ffffff;fill-opacity:1;fill-rule:evenodd;stroke:none"
         d="m 1198.52,1117.11 v -7.21 c 12.71,0 24.69,0.18 35.27,-6.28 7.28,-4.44 11.33,-7.26 16.82,-14.56 1.75,-2.33 3.53,-5.03 4.87,-7.85 2.47,-5.17 4.94,-12.66 4.94,-20.07 V 451.797 c 0,-8.277 -1.96,-13.465 -4.72,-20.297 l -4.54,-7.758 c -8.65,-11.746 -23.37,-21.558 -41.2,-21.558 h -11.44 v -8.481 h 243.8 c 1.96,0 1.27,2.383 1.27,7.211 0,1.961 -3.38,1.277 -5.51,1.274 -9.94,-0.032 -20.01,0.742 -28.97,5.796 -9.91,5.582 -15.63,11.098 -21.31,20.668 -2.94,4.95 -6.11,14.196 -6.11,21.875 v 103.039 h 215.4 V 330.949 c 0,-13.543 -5.85,-25.133 -14.95,-34.242 l -6.68,-5.617 c -13.69,-9.703 -24.68,-9.332 -40.28,-9.332 v -8.481 h 245.07 l -0.42,8.481 c -14.16,0 -20.93,-0.731 -33.78,5.652 -3.96,1.969 -8.21,4.723 -11.27,7.813 -1.58,1.601 -3.19,3.015 -4.66,4.664 l -3.96,5.371 c -9.14,14.988 -7.81,23.101 -7.81,39.683 v 198.024 c 0,1.535 0.06,3.183 0.03,4.695 -0.07,3.414 -5.69,9.184 -9.36,14.387 -6.11,8.66 -9.27,13.918 -14.76,22.973 -1.25,2.066 -2.12,3.812 -3.33,5.996 -10.91,19.632 -18.26,37.054 -25.63,59.172 -20.01,60.042 -25.69,122.765 -11.66,185.191 3.54,15.726 6.56,23.105 11.56,37.219 1.73,4.906 3.99,9.582 6.08,14.265 0.46,1.032 0.78,1.969 1.27,2.969 l 17.65,31.543 c 4.79,7.164 8.1,12.254 13.49,19.156 l 3.54,4.516 c 1.68,1.906 10.83,12.371 11.12,13.469 h -183.17 v -8.477 c 16.57,0 25.53,0.461 40.03,-9.156 2.77,-1.84 4.45,-3.305 6.72,-5.582 5.34,-5.348 5.78,-5.992 9.24,-11.949 0.56,-0.954 0.72,-1.079 1.2,-2.204 2.56,-6.031 4.72,-11.738 4.72,-20.296 V 691.801 h -215.4 v 370.179 c 0,11.65 5.38,21.75 11.8,29.75 6.03,7.5 15.91,13.47 25.42,16.14 7.84,2.21 10.95,2.04 18.75,2.03 6.82,-0.01 5.93,-1.47 5.93,7.21 0,0.98 -0.29,1.27 -1.27,1.27 h -242.53 c -0.98,0 -1.27,-0.29 -1.27,-1.27" /><path
         id="path18"
         style="fill:#ffffff;fill-opacity:1;fill-rule:evenodd;stroke:none"
         d="m 659.598,908.059 c 17.879,0 29.125,-0.004 44.281,-9.145 l 8.172,-5.82 c 10.48,-8.805 18.359,-22.528 18.359,-36.766 V 273.703 c 0,-9.41 -2.859,-17.586 -6.082,-24.027 -11.387,-22.785 -32.816,-32.797 -57.945,-32.797 h -7.207 v -9.328 h 282.39 v 9.328 c -16.261,0 -28.871,0.391 -42.961,8.769 -6.984,4.157 -12.66,9.579 -17.496,16 -0.648,0.856 -0.964,1.434 -1.539,2.29 -3.156,4.71 -5.472,9.921 -7.07,15.394 -1.07,3.66 -2.168,8.492 -2.168,13.098 v 605.523 h 67.844 c 20.867,0 43.703,-6.898 60.379,-18.062 9.415,-6.301 17.635,-13.985 24.605,-22.891 15.18,-19.43 23.11,-43.199 26.5,-67.625 0.31,-2.184 0.72,-4.598 0.86,-6.773 l 1.29,-22.887 -0.88,-17.36 c -0.4,-5.355 -1.29,-11.339 -2.15,-16.503 -0.82,-4.957 -1.8,-10.313 -3.18,-15.051 -5.53,-18.988 -12.83,-34.363 -23.55,-50.231 l -17.41,-19.476 c -0.97,-0.977 -1.41,-1.438 -2.44,-2.231 -12.134,-9.308 -11.122,-8.578 -24.77,-16.777 -2.102,-1.262 -4.106,-1.887 -6.325,-3.012 -4.199,-2.121 -8.632,-3.703 -13.058,-5.176 -18.965,-6.293 -35.406,-8.105 -56.34,-8.105 v -9.328 c 2.063,-0.481 8.313,-4.879 10.734,-6.231 l 11.313,-6.066 c 24.976,-12.488 54.734,-21.203 82.686,-21.203 23.38,0 39.52,1.199 61.85,8.109 11.39,3.524 22.19,8.094 32.85,13.371 8.7,4.309 17.02,9.719 24.75,15.532 l 30.12,27.972 c 0.74,0.801 0.71,0.899 1.32,1.653 0.53,0.66 0.85,0.914 1.39,1.57 6.97,8.574 13.51,17.762 18.59,27.629 0.68,1.312 1.24,2.039 1.99,3.523 14.03,28.117 21.34,57.141 21.34,89.336 0,8.305 -0.79,16.012 -1.29,23.731 -0.47,7.222 -2,14.98 -3.48,21.964 -1.42,6.704 -3.45,13.465 -5.57,19.872 -1.11,3.351 -2.19,6.039 -3.47,9.246 -3.46,8.683 -7.86,16.996 -12.82,24.918 -1.68,2.675 -3.42,5.074 -5.17,7.554 -5.27,7.461 -11.26,14.008 -17.71,20.457 l -6.59,6.129 c -0.79,0.664 -0.87,0.582 -1.67,1.297 l -5.35,4.402 c -2.43,1.821 -4.48,3.465 -7.1,5.196 l -11.64,7.441 c -33.9,20.305 -74.63,29.293 -114.01,32.274 -7.793,0.589 -15.68,1.246 -24.196,1.246 H 659.598 v -9.328" /><path
         id="path20"
         style="fill:#ffffff;fill-opacity:1;fill-rule:evenodd;stroke:none"
         d="m 3527.6,763.461 c 0.94,-0.68 0.93,-1.176 1.41,-2.41 0.47,-1.223 0.77,-1.887 1.19,-3.051 4.34,-12.07 12.03,-30.27 16.91,-42.453 l 28.71,-72.207 c 3.3,-8.246 6.38,-15.957 9.69,-24.231 l 19.26,-48.586 h -157.31 l 26.35,63.129 c 0.43,1.043 0.8,1.75 1.28,2.957 l 38.89,93.414 c 0.45,1.106 0.72,1.899 1.21,3.028 l 7.51,17.933 c 0.94,2.36 4.76,10.762 4.9,12.477 z M 3267.26,390.309 h -6.36 v -8.055 h 169.18 v 8.055 c -10.43,0 -17.77,0.101 -26.46,5.761 -14.78,9.633 -17.26,26.578 -10.86,42.586 l 5.83,14.114 c 5.56,14.07 11.79,27.918 17.38,41.976 2.18,5.496 15.14,37.82 17.5,42.281 h 184.87 c 0.44,-1.875 1.84,-4.789 2.61,-6.722 0.9,-2.254 1.8,-4.524 2.78,-6.965 1,-2.485 1.77,-4.613 2.73,-7.031 l 30.41,-76.446 c 3.7,-9.195 5.03,-22.258 0.34,-31.605 l -3.15,-4.903 c -2.54,-3.062 -5.27,-5.679 -8.75,-7.781 -1.56,-0.945 -3.99,-2.164 -5.71,-2.777 -5.96,-2.141 -13.01,-2.488 -19.98,-2.488 v -8.055 h 251.43 v 8.055 c -19.99,0 -32.71,3.398 -46.46,13.328 -1.38,0.996 -2.36,1.843 -3.57,2.789 l -11.98,11.762 c -4.74,5.304 -8.88,11.699 -12.06,18.046 -0.84,1.688 -1.25,2.989 -2.11,4.676 l -16.82,37.039 c -4.31,9.258 -8.84,18.434 -12.76,27.946 -3.21,7.796 -7.26,15.281 -10.54,22.953 l -27.31,60.035 c -5.95,13.906 -13.26,27.629 -19.03,41.609 -0.8,1.934 -1.37,2.844 -2.12,4.664 -1.36,3.297 -2.79,6.098 -4.28,9.289 l -14.7,32.375 c -0.85,1.692 -1.26,2.985 -2.11,4.668 -4.55,9 -8.49,18.516 -12.59,27.692 l -50.63,110.925 c -0.75,1.821 -1.32,2.731 -2.12,4.661 -4.45,10.816 -10.18,21.511 -14.79,32.289 l -8.5,18.633 c -3.68,7.593 -6.69,15.488 -10.45,23.05 l -19.09,41.961 c -1.28,2.883 -3.49,6.156 -4.23,9.34 -6.6,0 -7.39,1.047 -7.68,-2.074 -0.89,-9.547 -5.02,-19.711 -8.06,-28.828 -2.72,-8.153 -6.15,-16.203 -9.35,-24.16 l -19.14,-44.039 c -0.41,-0.977 -0.53,-1.43 -1,-2.391 -6.64,-13.707 -12.32,-27.766 -18.52,-41.688 l -6.09,-13.836 c -1.41,-3.269 -2.79,-6.031 -4.19,-9.386 -5.79,-13.938 -12.64,-27.465 -18.35,-41.434 l -18.43,-41.777 c -0.78,-1.653 -1.38,-2.996 -2.1,-4.692 l -14.3,-32.343 c -0.7,-1.45 -1.46,-3.219 -2.11,-4.672 -0.7,-1.551 -1.48,-3.266 -2.07,-4.715 l -8.18,-18.539 c -3.76,-9.289 -8.19,-18.453 -12.22,-27.633 -1.41,-3.223 -2.69,-6.105 -4.12,-9.441 -0.38,-0.868 -0.65,-1.282 -0.98,-2.004 l -3.11,-7.059 c -0.78,-1.617 -1.37,-3.121 -2.03,-4.754 -4.4,-10.765 -9.58,-21.656 -14.35,-32.285 l -14.28,-32.367 c -0.76,-1.715 -1.4,-3.02 -2.09,-4.695 l -24.59,-55.551 c -4.34,-10.461 -11.21,-27.11 -17.68,-35.75 -11.17,-14.918 -24.22,-25.684 -42.66,-31.121 -5.65,-1.668 -11.35,-2.496 -17.86,-2.496" /><path
         id="path22"
         style="fill:#ffffff;fill-opacity:1;fill-rule:evenodd;stroke:none"
         d="M 3075.61,1032.91 V 456.461 c 0,-4.242 0.03,-8.488 -0.01,-12.723 -0.03,-4.711 -0.64,-3.875 4.61,-8.113 l 24.13,-19.547 c 1.27,-1.043 2.33,-1.726 3.59,-2.769 l 28.57,-21.473 c 1.36,-0.934 2.16,-1.563 3.47,-2.457 0.79,-0.535 1.02,-0.734 1.72,-1.254 0.74,-0.547 1.19,-0.789 2.01,-1.383 l 18.58,-12.793 c 5.99,-4.144 29.03,-19.281 34.6,-22.226 v 682.167 l -0.18,-0.17 v 25.91 c 0,13.97 5.1,25.8 15.32,35.48 10.21,9.67 22.3,14.51 36.28,14.51 h 9.68 l 0.8,8.06 h -245.12 v -8.06 h 10.48 c 13.98,0 25.94,-4.84 35.88,-14.51 9.95,-9.68 15.19,-21.51 15.73,-35.48 v -26.85 l -0.14,0.13" /><path
         id="path24"
         style="fill:#ffffff;fill-opacity:1;fill-rule:evenodd;stroke:none"
         d="m 1989.75,436.109 c 4.82,-1.171 22.01,-2.004 28.27,-2.675 2.08,-0.223 1.47,0.097 3.92,0.156 l 8.48,-0.449 c 2.93,0 6.02,0.097 8.92,0.011 3.01,-0.089 3.02,-0.437 8.46,-0.437 l 50.71,2.723 15.74,2.07 c 2.09,0.301 5.93,1.144 8.2,1.144 0.18,5.188 -0.09,10.911 -0.32,16.098 l -1.18,47.531 c -0.13,5.344 -0.57,10.934 -0.66,16.074 -0.04,2.688 0.09,5.383 0.04,8.079 -0.05,2.679 -0.49,4.941 -0.44,7.621 0.06,4.125 -0.88,27.82 -1.48,31.172 -7.04,-3.903 -1.28,-3.223 -10.88,-3.188 -0.24,3.758 -1.24,7.961 -1.74,11.832 -3.68,28.731 6.48,51.942 6.46,84.875 -4.82,0.961 -6.36,2.004 -6.98,7.067 -0.48,3.906 -0.5,8.503 -1.16,12.312 -9.21,-0.535 -14.15,-5.086 -20.09,-8.953 -15.81,-10.309 -30.74,-9.043 -48.99,-7.133 -5.49,0.57 -8.05,0.84 -13.7,0.285 -4.99,-0.488 -8.45,-0.367 -12.35,1.692 -7.4,3.918 -12.88,12.375 -16.73,12.554 -3.68,0.164 -24.82,-10.332 -30.69,-13.019 l -28.4,-15 c 0.5,-9.363 11.45,-30.496 15.93,-40.188 l 17.96,-37.16 c 12.17,-24.402 25.29,-48.832 37.71,-73.43 3.28,-6.484 24.04,-43.972 25.7,-48.097 -0.88,-1.836 -2.1,-2.367 -3.49,-3.344 -11.76,-8.269 -30.92,-2.262 -37.22,-10.223" /><path
         id="path26"
         style="fill:#ffffff;fill-opacity:1;fill-rule:evenodd;stroke:none"
         d="m 2608.35,560.086 c -4.55,2.016 -10.19,4.027 -15.13,5.902 l -45.78,17.825 c -5.99,2.289 -59.75,23.718 -60.58,23.179 -0.59,-3.238 -0.2,-64.758 -0.2,-72.508 0,-5.07 0.5,-9.039 0.44,-14.433 -0.03,-2.528 -0.46,-3.797 -0.44,-6.766 0.09,-19.922 2.2,-38.59 -9.93,-55.375 -2.19,-3.027 -4.54,-5.148 -7.13,-7.715 -2.98,-2.949 -6.74,-5.34 -10.32,-7.484 l -7.98,-3.461 c -15.24,-4.441 -18.56,-0.859 -26.55,-2.715 -2.41,-10.375 1.58,-8.484 6.36,-8.484 h 175.97 c 8.73,0 60.12,-0.836 62.75,0.426 0.9,1.871 0.45,6.132 0,8.058 -4.9,1.141 -11.48,-0.457 -21.38,1.512 -17.57,3.488 -30.72,16.18 -37.26,32.703 -2.21,5.578 -2.85,12.438 -2.84,20.055 0,4.265 -0.45,7.136 -0.43,11.023 l 0.01,35.199 c 0,8.203 0.42,15.176 0.42,23.059" /><path
         id="path28"
         style="fill:#ffffff;fill-opacity:1;fill-rule:evenodd;stroke:none"
         d="m 3022.61,93.9141 h -8.48 c 0,-3.0782 -0.43,-4.7032 -0.43,-8.0586 h 245.09 v 8.0586 c -16.2,0 -29.13,0.4062 -42.54,11.3129 -7.54,6.121 -12.34,12.546 -16.04,21.699 -4.13,10.191 -3.33,19.347 -3.33,30.168 0,5.652 0,11.304 0,16.961 l -7.94,3.093 c -13.67,5.473 -41.99,16.731 -54.26,22.907 l -14.97,7.07 c -9.52,4.777 -20.05,9.453 -29.55,14.559 l -7.21,3.812 c -2.25,1.125 -4.94,3.121 -7.34,3.684 v -70.395 c 0,-21.191 1.36,-29.676 -12.05,-46.89 -0.98,-1.262 -1.81,-1.934 -2.9,-3.04 -0.57,-0.566 -0.89,-0.957 -1.48,-1.476 -10.11,-8.9181 -23.05,-13.4649 -36.57,-13.4649" /><g
         transform="scale(10)"
         id="g30"><text
           id="text34"
           style="font-style:italic;font-variant:normal;font-weight:bold;font-size:16.29870033px;font-family:TimesNewRomanPS-BoldItalicMT;-inkscape-font-specification:TimesNewRomanPS-BoldItalicMT-BoldItalic;writing-mode:lr-tb;fill:#ffffff;fill-opacity:1;fill-rule:nonzero;stroke:none"
           transform="matrix(1,0,0,-1,7.07031,3.89961)"><tspan
             id="tspan32"
             y="0"
             x="0 12.35276 21.999657 27.110212 35.84148 45.488766 54.220032 59.330589 64.441147 74.088036 86.894318 95.935745 104.66702 114.31391 123.04557 128.15613 135.97215 148.77844 159.31635 168.04762 175.86365">UntanglingTangledLove</tspan></text>
<text
           id="text38"
           style="font-variant:normal;font-weight:bold;font-size:34.42340088px;font-family:Times-Bold;-inkscape-font-specification:Times-Bold-Bold;writing-mode:lr-tb;fill:#ffffff;fill-opacity:1;fill-rule:nonzero;stroke:none"
           transform="matrix(1,0,0,-1,211.24931,3.563282)"><tspan
             id="tspan36"
             y="0"
             x="0 20.210163 40.420326 60.630493">2025</tspan></text>
</g><path
         id="path40"
         style="fill:#ffffff;fill-opacity:1;fill-rule:evenodd;stroke:none"
         d="m 2486.66,894.766 c 1.3,0.785 4.19,4.507 5.34,5.843 1.73,1.993 3.25,3.77 5,5.579 3.44,3.566 7.1,6.562 11.31,9.89 6.98,5.524 17.43,12.363 26.61,16.211 18.08,7.582 33.08,11.563 53.51,10.91 6.62,-0.203 13.49,-1.191 19.92,-1.258 v 62.379 c 3.52,0.82 39.62,0.68 48.35,0.43 2.36,-0.07 3.83,-0.45 6.77,-0.44 16.11,0.06 32.39,-2.19 46.64,-9.326 9.97,-4.984 9.68,-5.429 16.96,-11.019 2.62,-2.016 4.7,-4.5 7.1,-6.895 7.72,-7.695 14.77,-19.761 18.83,-29.941 4.67,-11.699 8.87,-27.395 9.68,-39.93 0.46,-7.222 2.26,-18.66 1.17,-26.586 -0.49,-3.523 -0.43,-9.398 -0.75,-13.254 -0.61,-7.324 -2.47,-16.66 -4.22,-23.754 -0.49,-1.972 -0.94,-3.609 -1.55,-5.667 -4.98,-16.708 -10.85,-28.95 -20.81,-42.372 -2.84,-3.836 -6.63,-7.429 -9.98,-10.796 -3.81,-3.844 -16.21,-13.18 -21.09,-14.567 -1.88,-1.93 -2.27,-4.265 -3.41,-7.156 -0.96,-2.438 -1.84,-4.742 -2.82,-7.359 l -17.06,-44.805 c 3.61,-4.481 8.81,-17.774 11.05,-23.262 0.59,-1.43 1.36,-3.289 2.06,-4.726 l 17.93,-41.012 c 4.31,-10.016 25.16,-51.531 31.24,-62.047 0.44,-0.77 0.67,-1.371 1.15,-2.234 l 3.93,-6.676 c 14.36,-23.957 22.44,-36.574 38.55,-58.129 l 9.02,-11.75 c 1.12,-1.488 1.99,-2.555 3.16,-4.055 l 15.2,-19.152 c 3.15,-4.004 6.63,-7.399 9.75,-11.445 1.11,-1.454 2.21,-2.165 3.27,-3.508 l 7.89,-9.074 c 0.67,-0.754 1.2,-1.168 1.91,-1.903 4.6,-4.742 8.52,-9.805 13.36,-14.64 3.39,-3.387 7.1,-6.504 10.03,-10.313 3.93,-5.098 12.66,-12.391 17.53,-17.246 l 27.11,-24.613 c 0.81,-0.672 1.15,-1.196 1.95,-1.871 0.86,-0.723 1.02,-0.68 1.89,-1.497 l 13.15,-11.031 c 10.42,-9.722 27.13,-21.765 38.68,-30.426 l 8.06,-5.937 c 5.26,-3.953 10.59,-7.629 16.2,-11.363 l 72.23,-45.215 c 8.7,-5.27 17.67,-10.266 26.76,-14.797 l 32.54,-16.219 c 1.94,-0.797 2.85,-1.273 4.63,-2.16 l 14.28,-6.492 c 18.96,-9.445 49.05,-20.539 68.81,-28.293 31.74,-12.457 72.44,-24.734 105.29,-32.942 38.15,-9.542 76.84,-17.253 115.9,-22.753 8.21,-1.157 16.39,-1.938 24.85,-3.129 l 31.14,-3.211 c 4.37,-0.055 8.14,-0.899 12.72,-0.848 2.99,0.031 4.02,-0.434 6.77,-0.437 4.83,0 8.38,-0.258 13.17,-0.391 l 13.19,-0.805 c 7.04,-0.797 46.78,0.371 55.06,0.364 4.95,-0.004 8.45,0.449 13.58,0.418 l 51.76,3.785 c 23.88,2.254 47.93,6.652 71.22,11.457 3.87,0.797 7.92,1.593 11.51,2.492 7.63,1.914 15.09,3.262 22.54,5.441 l 10.7,2.867 c 21.33,5.325 41.91,13.258 62.14,21.391 l 42.19,19.711 c 11.36,5.672 22.42,12.277 33.13,19.023 14.31,9.008 32.96,22.465 45.57,33.731 0.85,0.762 1.06,0.812 1.89,1.504 l 12.73,11.855 c 2.43,2.438 4.56,4.563 7,6.996 l 28.79,33.118 19.57,29.187 c 7.93,13.277 14.56,27.199 20.93,41.41 5.18,11.571 9.42,23.563 12.86,35.899 4,14.351 7.46,29.48 10.06,45.066 1.32,7.965 2.55,15.953 3.48,24.09 0.96,8.516 2.5,16.602 2.99,24.98 0.25,4.239 0.88,8.082 0.85,12.719 l 0.45,9.735 c 0.38,4.921 0.66,10.406 0.83,16.246 v 31.957 c -0.55,22.109 -2.13,44.824 -4.42,61.039 -1.18,8.332 -2.44,15.797 -3.76,23.804 -4.33,26.34 -13.59,61.383 -24.75,86.344 l -18.62,36.93 c -8.45,14.109 -18.81,26.719 -30.39,38.297 -4.67,4.668 -9.77,8.961 -15.1,12.894 -20.54,15.176 -47.59,23.789 -75.09,21.543 -20.17,-1.656 -40.94,-7.297 -58.19,-17.711 l -12.09,-8.683 c -1.39,-1.164 -2.07,-2.168 -3.52,-3.274 -4.84,-3.676 -12.27,-14.765 -15.35,-19.843 -3.59,-5.93 -6.17,-12.809 -7.97,-19.586 -5.01,-18.856 -0.24,-38.844 10.43,-54.875 1.05,-1.575 1.74,-2.485 2.84,-3.95 2.92,-3.925 6.3,-7.328 9.94,-10.836 3.46,-3.343 7.84,-6.39 12,-8.765 1.48,-0.848 2.76,-1.645 4.35,-2.434 l 9.99,-4.008 c 3.28,-1.011 7.5,-1.914 11.2,-2.375 15.46,-1.906 30.48,2.903 43.05,11.414 12.57,8.516 22.67,23.317 23.4,38.934 0.06,1.094 -0.06,2.277 0.03,3.371 0.32,4.086 0.41,5.336 -0.25,9.547 -0.92,5.746 -2.97,10.637 -5.96,15.246 -3.54,5.445 -8.61,10.168 -14.45,13.113 -6.84,3.457 -14.69,5.438 -22.75,4.227 -7.96,-1.195 -13.09,-3.754 -18.43,-9.133 -10.61,-10.699 -9.43,-28.957 0.85,-39.238 17.69,-17.688 44.97,1.5 40.87,21.363 -0.48,2.332 -1.21,3.34 -2.81,4.402 -0.76,-0.382 -0.53,-0.324 -1.69,-0.425 1.69,-7.278 1.73,-12.965 -2.96,-19.086 -1.79,-2.352 -3.94,-4.137 -7.13,-5.16 -3.99,-1.278 -7.91,0.05 -10.27,1.765 -3.88,2.817 -9.9,8.625 -10.18,14.84 -0.47,10.649 5.49,18.313 14.18,23.16 2.36,1.321 6.89,2.301 10.75,1.766 4.94,-0.68 9.41,-2.633 13.25,-5.406 l 3.5,-2.856 c 1.25,-1.207 1.75,-1.82 2.79,-3.137 12.03,-15.148 9.98,-37.007 -0.61,-52.277 -6.88,-9.926 -17.6,-17.152 -29.06,-20.98 -13.73,-4.586 -28.1,-4.121 -41.36,1.793 -5.7,2.543 -10.33,5.992 -15.22,9.785 l -4.53,4.383 c -12.32,13.96 -16.56,31.812 -14.39,51.058 0.92,8.121 2.23,13.813 4.8,20.219 5.25,13.09 13.74,22.711 24.44,31.547 3.58,2.965 7.58,5.125 11.83,7.246 25.68,12.848 55.65,11.539 80.7,-0.988 5.43,-2.715 10.59,-5.95 15.51,-9.508 l 10.46,-8.196 c 3.26,-2.906 6.54,-5.953 9.35,-9.312 l 6.11,-6.609 c 5.6,-6.622 11.28,-14.184 15.68,-21.633 2.3,-3.914 4.91,-7.68 6.92,-11.739 0.7,-1.417 1.41,-2.828 2.12,-4.242 4.27,-8.55 7.78,-17.484 11.32,-26.418 2.46,-6.222 4.26,-12.257 6.21,-18.8 6.01,-20.172 12.77,-53.469 13.85,-73.5 0.2,-3.622 0.88,-8.047 0.84,-11.883 -0.04,-3.614 0.55,-8.114 0.83,-11.469 0.51,-6.207 -0.16,-12.23 0.5,-18.156 0.63,-5.59 -0.34,-12.274 -0.5,-17.856 -0.18,-6.293 0.36,-11.867 -0.59,-18.07 l -1.09,-17.563 c -0.36,-15.515 -9.08,-62.183 -12.38,-75.39 -6.53,-26.106 -14.54,-50.57 -25.06,-75.02 -3.67,-8.535 -7.55,-17.14 -12.18,-25.125 -4.59,-7.89 -9.25,-15.633 -14.65,-23.09 l -28.69,-33.64 c -3.58,-3.547 -7.06,-7.504 -10.99,-10.645 -5.74,-4.586 -10.69,-10.277 -16.34,-15.027 -0.73,-0.613 -1.02,-1.055 -1.72,-1.676 -0.79,-0.699 -0.88,-0.637 -1.67,-1.301 l -26.42,-20.648 c -13.99,-10.523 -26.53,-17.949 -41.63,-27.055 -2.76,-1.66 -5.35,-2.883 -8.15,-4.566 l -16.54,-8.477 c -3.17,-1.308 -5.45,-2.718 -8.31,-3.992 l -17.37,-7.648 c -2.88,-1.278 -6.08,-2.594 -8.97,-3.746 -3,-1.2 -5.93,-2.332 -8.89,-3.403 -3.12,-1.129 -5.69,-2.179 -9.02,-3.281 -6.33,-2.09 -12.36,-4.395 -18.83,-6.191 l -19.44,-5.567 c -13.18,-3.859 -27.63,-6.387 -41.11,-8.941 -14.71,-2.781 -28.97,-4.192 -44.2,-5.824 -7.46,-0.797 -15.3,-1.387 -23.4,-1.61 -2.21,-0.062 -2.9,-0.461 -5.49,-0.449 -1.96,0.012 -4.46,0.144 -6.35,-0.012 -9.89,-0.812 -27.05,-0.812 -36.93,0 -1.76,0.149 -4.11,0.028 -5.92,0.02 l -23.68,1.336 c -13.39,1.449 -26.46,2.394 -39.74,4.363 -31.5,4.668 -62.35,10.797 -92.77,19.598 -19.09,5.527 -37.99,11.593 -56.71,18.332 -15.84,5.699 -38.43,14.961 -53.37,21.683 -14.64,6.586 -27.99,13.371 -42.28,20.481 -1.59,0.801 -2.23,1.328 -3.8,2.129 l -8.2,4.519 c -7.66,3.766 -19.96,11.024 -28.12,15.559 -8.11,4.508 -15.54,9.558 -23.48,14.254 -2.7,1.605 -4.86,3.054 -7.59,4.715 l -73.2,51.875 -36.23,29.492 c -0.72,0.582 -0.88,0.711 -1.66,1.316 -5.81,4.555 -10.94,9.949 -16.77,14.598 -3.83,3.051 -7.16,7.519 -11.03,10.601 -5.04,4.016 -29.88,30.379 -36.46,35.618 -3.46,2.761 -6.44,6.39 -9.59,9.5 -0.6,0.589 -0.93,0.894 -1.44,1.527 l -4.35,4.976 c -2.26,2.926 -5.14,5.469 -7.39,8.297 l -7.4,8.297 c -1.13,1.356 -1.82,1.778 -3.02,3.336 -1.01,1.317 -1.85,1.867 -2.89,3.043 -0.7,0.793 -0.64,0.887 -1.29,1.672 l -14.82,16.562 c -0.74,0.829 -0.77,1.055 -1.5,1.891 l -5.61,6.691 c -0.57,0.743 -0.73,0.875 -1.37,1.598 l -18.38,22.754 c -4.11,5.25 -12.73,15.438 -16.46,20.848 l -39.43,54.277 c -5.97,8.676 -12.68,16.836 -18.49,25.609 l -14.67,22.653 c -8.79,13.129 -20.68,32.136 -33.24,41.812 -7.28,5.598 -14.96,10.5 -23.75,13.989 l -13.74,4.906 c -1.05,0.297 -1.43,0.347 -2.34,0.637 -1.52,0.476 -1.33,0.117 -2.15,1.242 4.85,0 8.3,0.675 12.47,1.519 l 22.46,5.949 c 9.36,3.118 18.14,7.293 26.47,12.543 l 14.87,10.575 c 4.02,3.179 7.36,6.621 10.97,10.226 7.62,7.621 13.35,14.856 19,24.242 l 4.99,9.008 c 0.57,1.074 0.69,1.098 1.27,2.125 0.53,0.949 0.78,1.547 1.27,2.539 2.47,4.949 4.83,9.731 6.6,15.032 1.24,3.738 2.35,7.042 3.49,10.925 2.16,7.328 3.97,15.649 5.02,23.395 0.27,2.051 0.61,3.988 0.84,5.949 1.68,15.106 0.93,32.856 -1.12,47.16 -0.63,4.453 -1.39,7.922 -2.41,11.996 l -3.17,11.258 c -6.11,16.789 -12.07,27.43 -23.01,41.012 -7.59,9.41 -16.77,16.91 -26.35,24.112 -5.4,4.06 -11.48,7.79 -17.55,10.87 -1.67,0.85 -2.85,1.42 -4.52,2.25 -51.78,25.93 -112.24,22.62 -170.74,22.62 -71.37,0 -142.75,-0.39 -214.12,0 -2.64,0.01 -5,1.07 -5.15,-2.07 -0.12,-2.83 0.03,-4.6 0.91,-6.41 6.12,-1.43 15.1,0.32 22.91,-1.69 6.56,-1.69 12.11,-4.65 16.94,-8.06 1.18,-0.84 2.19,-1.61 3.29,-2.66 l 4.88,-4.45 c 5.82,-6.61 9.78,-13.17 11.73,-22.606 2.66,-12.859 1.73,-32.391 1.73,-47.891 0,-16.585 0,-33.168 0,-49.757" /><path
         id="path42"
         style="fill:#ffffff;fill-opacity:1;fill-rule:evenodd;stroke:none"
         d="m 2574.86,660.934 c -4.65,1.089 -33.47,12.679 -40.5,15.394 l -81.11,31.246 c -16.7,6.461 -26.12,8.512 -36.37,20.028 -8.82,9.882 -13.71,26.871 -8.19,43.441 4.5,13.496 14.53,23.453 28.16,28.234 17.91,6.289 31.16,-0.773 45.49,-6.218 6.93,-2.629 13.45,-5.286 20.09,-7.887 4.59,-1.801 16.66,-6.703 20.7,-7.723 0.43,0.477 0.16,-0.008 0.69,1.004 l 15.24,39.457 c 5.85,15.598 9.7,27.227 21.15,35.238 27.15,18.973 62.38,5.426 70.46,-24.957 4.45,-16.726 -3.22,-32.445 -8.35,-45.207 l -15.59,-40.804 c -3.05,-8.242 -30.16,-79.41 -31.87,-81.246 z m -84.81,191.203 c -3.1,0.258 -14.8,5.652 -35.2,7.023 -28.53,1.918 -56.72,-10.43 -76.04,-29.816 -11.31,-11.364 -18.99,-22.867 -24.62,-39.406 -3.8,-11.172 -6,-24.532 -5.43,-37.504 0.88,-19.758 7.45,-40.051 18.83,-55.469 8.54,-11.578 15.28,-18.039 27.3,-26.141 12.92,-8.703 43.38,-19.25 59.46,-25.32 10.21,-3.852 20.69,-7.785 30.89,-11.941 19.42,-7.907 41.68,-16.161 61.42,-23.817 l 46.01,-17.586 c 4.62,-1.836 10.71,-4.785 15.76,-5.847 l 23.46,61.605 c 7.92,20.703 15.65,40.918 23.72,61.488 8.02,20.422 15.93,40.985 23.76,61.489 8.88,23.25 14.54,43.816 7.13,71.57 -3.14,11.762 -7.37,20.605 -12.84,29.562 -10.45,17.098 -27.73,31.145 -46.03,39.188 -9.98,4.387 -21.81,7.301 -34.54,8.203 -25.68,1.824 -50.74,-7.91 -65.98,-19.16 -12.18,-8.985 -22.7,-20.242 -29.94,-33.676 -2.18,-4.059 -4.63,-11.047 -7.12,-14.445" /><g
         transform="scale(10)"
         id="g44"><text
           id="text48"
           style="font-style:italic;font-variant:normal;font-weight:bold;font-size:16.29840088px;font-family:TimesNewRomanPS-BoldItalicMT;-inkscape-font-specification:TimesNewRomanPS-BoldItalicMT-BoldItalic;writing-mode:lr-tb;fill:#ffffff;fill-opacity:1;fill-rule:nonzero;stroke:none"
           transform="matrix(1,0,0,-1,196.129,120.557)"><tspan
             id="tspan46"
             y="0"
             x="0 11.453138 19.269169 28.916065 38.562572 46.378994 51.48954 60.674698 73.027054 82.673561 87.784111 95.600533 103.41656 110.34158 117.2662 122.37675 127.48729 135.30371 140.10411">BennettUniversity’s</tspan></text>
</g></g></g></svg>