<?xml version="1.0" encoding="UTF-8"?>
<svg version="1.1" xmlns="http://www.w3.org/2000/svg" width="1587" height="2245">
<path d="M0 0 C523.71 0 1047.42 0 1587 0 C1587 740.85 1587 1481.7 1587 2245 C1063.29 2245 539.58 2245 0 2245 C0 1504.15 0 763.3 0 0 Z " fill="#13305B" transform="translate(0,0)"/>
<path d="M0 0 C0.33 0 0.66 0 1 0 C1 185.79 1 371.58 1 563 C0.67 563 0.34 563 0 563 C0 391.73 0 220.46 0 44 C-2.31 44 -4.62 44 -7 44 C-11.21339381 42.37946392 -13.65691303 40.85128089 -16 37 C-17.71858207 27.49051253 -14.83127551 18.61463138 -9.47265625 10.76171875 C-7.42492056 8.24503596 -5.80226637 6.39306652 -2.86328125 4.953125 C-0.78172258 4.15789105 -0.78172258 4.15789105 -0.25 1.875 C-0.1675 1.25625 -0.085 0.6375 0 0 Z " fill="#245178" transform="translate(1586,650)"/>
<path d="M0 0 C3.53158934 1.56959526 6.39848089 3.10942321 9 6 C9.32126375 8.51656603 9.24385491 10.86243856 9.10546875 13.39453125 C9.00610861 15.84909483 9.19099163 18.0159816 9.5625 20.4375 C10 24 10 24 9 27 C6.93359375 27.94921875 6.93359375 27.94921875 4.4375 28.6875 C3.61121094 28.93886719 2.78492188 29.19023437 1.93359375 29.44921875 C1.29550781 29.63097656 0.65742187 29.81273437 0 30 C-0.020625 31.216875 -0.04125 32.43375 -0.0625 33.6875 C-0.37779364 36.3510254 -0.61637649 37.61144559 -2.51953125 39.5390625 C-3.72299361 40.36501772 -4.95345075 41.15341672 -6.2109375 41.89453125 C-8.10187593 43.06294954 -9.48743838 44.38072391 -11 46 C-13.53687239 38.38938283 -12.02797984 29.89572436 -10.75 22.125 C-10.64075195 21.4119873 -10.53150391 20.69897461 -10.41894531 19.96435547 C-9.55876984 15.15211397 -7.93078788 12.00302735 -5 8 C-4.835 7.29875 -4.67 6.5975 -4.5 5.875 C-3.77511654 3.15668704 -2.04575446 1.84777822 0 0 Z " fill="#152145" transform="translate(1274,282)"/>
<path d="M0 0 C2.64 1.65 5.28 3.3 8 5 C8 5.66 8 6.32 8 7 C9.258125 7.185625 10.51625 7.37125 11.8125 7.5625 C19.32009463 9.21631245 26.70490628 13.54313726 31 20 C30.29875 20.25394531 29.5975 20.50789063 28.875 20.76953125 C25.91549463 21.84315616 22.95777027 22.92160556 20 24 C19.24074219 24.27328125 18.48148438 24.5465625 17.69921875 24.828125 C14.57429188 25.968875 11.60272952 27.19863524 8.625 28.6875 C6 30 6 30 4 30 C4 30.66 4 31.32 4 32 C2.02 32.495 2.02 32.495 0 33 C0 22.11 0 11.22 0 0 Z " fill="#141C39" transform="translate(0,2211)"/>
<path d="M0 0 C3.526875 0.185625 3.526875 0.185625 7.125 0.375 C7.85348145 0.40899902 8.58196289 0.44299805 9.33251953 0.47802734 C13.53992526 0.73022064 17.06405375 1.53245433 21 3 C22.19625 3.309375 23.3925 3.61875 24.625 3.9375 C27.77670622 4.92970381 29.72080083 5.62963286 32 8 C32 9.32 32 10.64 32 12 C28.55814398 14.09178174 25.79760399 14.22203766 21.8125 14.3125 C16.15439342 14.64345787 12.49919962 15.81468403 7.8046875 18.94140625 C6 20 6 20 3 20 C3 20.66 3 21.32 3 22 C2.01 22 1.02 22 0 22 C0 14.74 0 7.48 0 0 Z " fill="#143B6B" transform="translate(0,1270)"/>
<path d="M0 0 C2.52719107 1.26359554 2.80374602 2.30852704 4.0625 4.8125 C9.15680512 14.20465545 15.39807505 24.46602502 26 28 C26 28.66 26 29.32 26 30 C17.5925696 30.64015968 11.88262803 30.01995903 5 25 C4.09765625 24.505 3.1953125 24.01 2.265625 23.5 C-1.33103382 19.53127302 -0.53531588 15.39876071 -0.3125 10.25 C-0.28994141 9.26644531 -0.26738281 8.28289062 -0.24414062 7.26953125 C-0.18528805 4.8448053 -0.10313431 2.42318017 0 0 Z " fill="#163B6E" transform="translate(0,413)"/>
<path d="M0 0 C0.33 0 0.66 0 1 0 C1 28.05 1 56.1 1 85 C0.01 85.495 0.01 85.495 -1 86 C-5.49671591 76.81920502 -4.57318983 66.95769311 -3.28977966 57.05931091 C-1.78212444 45.36938178 -1.59378911 33.70966183 -1.4375 21.9375 C-1.39347582 18.9301436 -1.34697718 15.92288918 -1.29469299 12.91566467 C-1.26284563 11.06388791 -1.2359218 9.21201844 -1.21446228 7.36009216 C-1.11201727 1.11201727 -1.11201727 1.11201727 0 0 Z " fill="#173564" transform="translate(1586,339)"/>
<path d="M0 0 C2.625 -0.5 2.625 -0.5 6 0 C8.52795994 2.34380392 10.53429569 4.87468497 12 8 C11.72843966 10.15718355 11.5503208 11.4496792 10 13 C10.020625 14.2375 10.04125 15.475 10.0625 16.75 C10.11958698 20.27670647 9.59958458 22.80083084 8 26 C5.10197129 24.55098565 4.72596064 22.55576719 3.4375 19.625 C2.78587891 18.15933594 2.78587891 18.15933594 2.12109375 16.6640625 C0.42089707 12.62387388 -0.11380906 9.67377019 -0.0625 5.3125 C-0.05347656 4.31863281 -0.04445313 3.32476563 -0.03515625 2.30078125 C-0.02355469 1.54152344 -0.01195312 0.78226563 0 0 Z " fill="#15264D" transform="translate(1402,1402)"/>
<path d="M0 0 C0 2.97 0 5.94 0 9 C-4.95 9 -9.9 9 -15 9 C-11.62428881 6.29943105 -8.93912917 4.25549975 -5.25 2.25 C-4.08210938 1.60804688 -4.08210938 1.60804688 -2.890625 0.953125 C-1 0 -1 0 0 0 Z " fill="#193466" transform="translate(1587,2236)"/>
<path d="M0 0 C0.89749822 3.0682638 1.11711768 5.79269976 1.09765625 8.984375 C1.09443359 9.91894531 1.09121094 10.85351562 1.08789062 11.81640625 C1.07951172 12.78449219 1.07113281 13.75257813 1.0625 14.75 C1.05798828 15.73355469 1.05347656 16.71710937 1.04882812 17.73046875 C1.03706483 20.15370791 1.02062684 22.57682273 1 25 C2.65 24.67 4.3 24.34 6 24 C5 26 5 26 1.9375 27.125 C0.968125 27.41375 -0.00125 27.7025 -1 28 C-1.02891949 23.70834738 -1.04677118 19.41671964 -1.0625 15.125 C-1.07087891 13.90167969 -1.07925781 12.67835938 -1.08789062 11.41796875 C-1.09111328 10.25136719 -1.09433594 9.08476562 -1.09765625 7.8828125 C-1.10289307 6.80402832 -1.10812988 5.72524414 -1.11352539 4.61376953 C-1 2 -1 2 0 0 Z " fill="#16264D" transform="translate(145,2172)"/>
<path d="M0 0 C0.66 0.33 1.32 0.66 2 1 C1.43410156 1.4846875 0.86820313 1.969375 0.28515625 2.46875 C-3.35886887 5.79896628 -5.7149368 7.97712615 -7.0625 12.8125 C-7.22424773 17.87722576 -6.6001744 22.97700192 -6 28 C-6.66 27.67 -7.32 27.34 -8 27 C-8.50931609 24.60621436 -8.81153949 22.42807267 -9 20 C-9.06574219 19.18273438 -9.13148437 18.36546875 -9.19921875 17.5234375 C-9.45076969 11.78113666 -8.94703895 8.4804226 -5 4 C-2.25 1.625 -2.25 1.625 0 0 Z " fill="#152348" transform="translate(1555,1408)"/>
<path d="M0 0 C0.99 0 1.98 0 3 0 C2.67 2.64 2.34 5.28 2 8 C1.01 8.33 0.02 8.66 -1 9 C-1.625 5.625 -1.625 5.625 -2 2 C-1.34 1.34 -0.68 0.68 0 0 Z M-3 10 C-3 13 -3 13 -3 13 Z M-6 14 C-5.67 14.66 -5.34 15.32 -5 16 C-5.66 15.67 -6.32 15.34 -7 15 C-6.67 14.67 -6.34 14.34 -6 14 Z " fill="#15254C" transform="translate(156,2068)"/>
<path d="M0 0 C0.99 0.33 1.98 0.66 3 1 C5.06362991 1.15029988 7.13123915 1.24844448 9.19921875 1.31640625 C11.01196289 1.37924805 11.01196289 1.37924805 12.86132812 1.44335938 C14.12396484 1.48267578 15.38660156 1.52199219 16.6875 1.5625 C18.59885742 1.62727539 18.59885742 1.62727539 20.54882812 1.69335938 C23.69910852 1.7995486 26.84946839 1.90159533 30 2 C30 2.33 30 2.66 30 3 C18.78 3 7.56 3 -4 3 C-2.68 2.01 -1.36 1.02 0 0 Z " fill="#1B3B6A" transform="translate(4,2242)"/>
<path d="M0 0 C0 0.66 0 1.32 0 2 C0.99 2.33 1.98 2.66 3 3 C3 5.97 3 8.94 3 12 C2.34 12 1.68 12 1 12 C0.7525 11.0925 0.505 10.185 0.25 9.25 C-1.03981342 5.89648511 -2.31971042 4.32291764 -5 2 C-2 0 -2 0 0 0 Z " fill="#142244" transform="translate(341,170)"/>
<path d="M0 0 C6.93 0.33 13.86 0.66 21 1 C21 1.33 21 1.66 21 2 C15.96145894 2.83211276 11.1874338 3.1078534 6.0625 3.0625 C5.37865234 3.05798828 4.69480469 3.05347656 3.99023438 3.04882812 C2.32678396 3.0371956 0.6633795 3.01926694 -1 3 C-0.67 2.01 -0.34 1.02 0 0 Z " fill="#0F2749" transform="translate(1498,1208)"/>
<path d="M0 0 C0 3 0 3 -2.1171875 5.41015625 C-3.48230469 6.72306641 -3.48230469 6.72306641 -4.875 8.0625 C-5.77992187 8.94035156 -6.68484375 9.81820312 -7.6171875 10.72265625 C-8.79667969 11.84994141 -8.79667969 11.84994141 -10 13 C-10.66 13.66 -11.32 14.32 -12 15 C-11.45673102 10.91118611 -9.30287186 8.78087079 -6.5625 5.8125 C-5.75941406 4.93207031 -4.95632812 4.05164062 -4.12890625 3.14453125 C-2 1 -2 1 0 0 Z " fill="#15234A" transform="translate(118,2039)"/>
<path d="M0 0 C2 2 2 2 2.125 4.96875 C2.04166667 7.32291667 1.95833333 9.67708333 1.875 12.03125 C1.6696505 15.12080667 1.6696505 15.12080667 4 17 C3.01 17.66 2.02 18.32 1 19 C-0.65497356 15.69005287 -0.10084335 12.00877 -0.0625 8.375 C-0.05798828 7.57320312 -0.05347656 6.77140625 -0.04882812 5.9453125 C-0.03703168 3.96350994 -0.01909605 1.98174567 0 0 Z " fill="#142448" transform="translate(112,2150)"/>
<path d="M0 0 C1.16306443 3.54950034 0.92365049 6.55823948 0.5625 10.25 C0.46066406 11.32765625 0.35882812 12.4053125 0.25390625 13.515625 C0.17011719 14.33546875 0.08632812 15.1553125 0 16 C-0.33 16 -0.66 16 -1 16 C-1.33 12.37 -1.66 8.74 -2 5 C-3.32 5.99 -4.64 6.98 -6 8 C-4.55746343 4.63408134 -2.66735273 2.48952921 0 0 Z " fill="#0D2646" transform="translate(1420,2115)"/>
<path d="M0 0 C1.32 0.66 2.64 1.32 4 2 C4 2.66 4 3.32 4 4 C0.7 4.33 -2.6 4.66 -6 5 C-4.60804085 2.2160817 -2.84424221 2.02101003 0 1 C0 0.67 0 0.34 0 0 Z " fill="#15264D" transform="translate(1476,223)"/>
<path d="M0 0 C0.66 0.33 1.32 0.66 2 1 C-0.31 3.64 -2.62 6.28 -5 9 C-5.66 8.67 -6.32 8.34 -7 8 C-6.21366078 6.85050412 -5.42073742 5.70551011 -4.625 4.5625 C-4.18414063 3.92441406 -3.74328125 3.28632812 -3.2890625 2.62890625 C-2 1 -2 1 0 0 Z " fill="#16254C" transform="translate(1529,1995)"/>
<path d="M0 0 C0.33 0.66 0.66 1.32 1 2 C2.65 2 4.3 2 6 2 C5.67 2.66 5.34 3.32 5 4 C2.67843403 4.40729228 0.3431213 4.74438677 -2 5 C-1.125 1.125 -1.125 1.125 0 0 Z " fill="#142349" transform="translate(116,1310)"/>
<path d="M0 0 C2.64 0.33 5.28 0.66 8 1 C7.360625 1.103125 6.72125 1.20625 6.0625 1.3125 C5.0415625 1.6528125 5.0415625 1.6528125 4 2 C3.67 2.99 3.34 3.98 3 5 C1.5 3.625 1.5 3.625 0 2 C0 1.34 0 0.68 0 0 Z " fill="#152144" transform="translate(1567,80)"/>
</svg>
